<svg xmlns="http://www.w3.org/2000/svg" xmlns:xlink="http://www.w3.org/1999/xlink" stroke-miterlimit="4" clip-rule="evenodd" viewBox="0 0 521 85"><desc>SVG generated by Keynote</desc><g><text fill="#000" font-family="HelveticaNeue-Light" font-size="90" transform="matrix(1.00, 0.00, -0.00, -1.00, 0.0, 85.0) matrix(1.00, 0.00, -0.00, -1.00, -6.0, 19.0)" xml:space="preserve">I</text><text fill="#000" font-family="HelveticaNeue-Light" font-size="90" transform="matrix(1.00, 0.00, -0.00, -1.00, 0.0, 85.0) matrix(1.00, 0.00, -0.00, -1.00, 39.0, 19.0)" xml:space="preserve">a</text><text fill="#000" font-family="HelveticaNeue-Light" font-size="90" transform="matrix(1.00, 0.00, -0.00, -1.00, 0.0, 85.0) matrix(1.00, 0.00, -0.00, -1.00, 85.7, 19.0)" xml:space="preserve">m</text><text fill="#000" font-family="HelveticaNeue-Light" font-size="90" transform="matrix(1.00, 0.00, -0.00, -1.00, 0.0, 85.0) matrix(1.00, 0.00, -0.00, -1.00, 185.7, 19.0)" xml:space="preserve">m</text><text fill="#000" font-family="HelveticaNeue-Light" font-size="90" transform="matrix(1.00, 0.00, -0.00, -1.00, 0.0, 85.0) matrix(1.00, 0.00, -0.00, -1.00, 260.7, 19.0)" xml:space="preserve">y</text><text fill="#000" font-family="HelveticaNeue-Light" font-size="90" transform="matrix(1.00, 0.00, -0.00, -1.00, 0.0, 85.0) matrix(1.00, 0.00, -0.00, -1.00, 327.4, 19.0)" xml:space="preserve">w</text><text fill="#000" font-family="HelveticaNeue-Light" font-size="90" transform="matrix(1.00, 0.00, -0.00, -1.00, 0.0, 85.0) matrix(1.00, 0.00, -0.00, -1.00, 394.1, 19.0)" xml:space="preserve">o</text><text fill="#000" font-family="HelveticaNeue-Light" font-size="90" transform="matrix(1.00, 0.00, -0.00, -1.00, 0.0, 85.0) matrix(1.00, 0.00, -0.00, -1.00, 444.1, 19.0)" xml:space="preserve">r</text><text fill="#000" font-family="HelveticaNeue-Light" font-size="90" transform="matrix(1.00, 0.00, -0.00, -1.00, 0.0, 85.0) matrix(1.00, 0.00, -0.00, -1.00, 472.4, 19.0)" xml:space="preserve">k</text></g></svg>