<svg xmlns="http://www.w3.org/2000/svg" xmlns:xlink="http://www.w3.org/1999/xlink" stroke-miterlimit="4" clip-rule="evenodd" viewBox="0 0 1920 1080"><desc>SVG generated by Keynote</desc><g><path fill="#FEFFFE" d="M 0.0 1080.0 L 1920.0 1080.0 L 1920.0 0.0 L 0.0 0.0 Z M 0.0 1080.0" transform="matrix(1.00, 0.00, -0.00, -1.00, 0.0, 1080.0)"/><text fill="#000" font-family="HelveticaNeue-Light" font-size="80" transform="matrix(1.00, 0.00, -0.00, -1.00, 0.0, 1080.0) matrix(1.00, 0.00, -0.00, -1.00, 526.0, 510.0)" xml:space="preserve">“</text><text fill="#000" font-family="HelveticaNeue-Light" font-size="80" transform="matrix(1.00, 0.00, -0.00, -1.00, 0.0, 1080.0) matrix(1.00, 0.00, -0.00, -1.00, 555.6, 510.0)" xml:space="preserve">i</text><text fill="#000" font-family="HelveticaNeue-Light" font-size="80" transform="matrix(1.00, 0.00, -0.00, -1.00, 0.0, 1080.0) matrix(1.00, 0.00, -0.00, -1.00, 570.4, 510.0)" xml:space="preserve">f</text><text fill="#000" font-family="HelveticaNeue-Light" font-size="80" transform="matrix(1.00, 0.00, -0.00, -1.00, 0.0, 1080.0) matrix(1.00, 0.00, -0.00, -1.00, 613.4, 510.0)" xml:space="preserve">I</text><text fill="#000" font-family="HelveticaNeue-Light" font-size="80" transform="matrix(1.00, 0.00, -0.00, -1.00, 0.0, 1080.0) matrix(1.00, 0.00, -0.00, -1.00, 653.4, 510.0)" xml:space="preserve">d</text><text fill="#000" font-family="HelveticaNeue-Light" font-size="80" transform="matrix(1.00, 0.00, -0.00, -1.00, 0.0, 1080.0) matrix(1.00, 0.00, -0.00, -1.00, 699.3, 510.0)" xml:space="preserve">o</text><text fill="#000" font-family="HelveticaNeue-Light" font-size="80" transform="matrix(1.00, 0.00, -0.00, -1.00, 0.0, 1080.0) matrix(1.00, 0.00, -0.00, -1.00, 743.8, 510.0)" xml:space="preserve">n</text><text fill="#000" font-family="HelveticaNeue-Light" font-size="80" transform="matrix(1.00, 0.00, -0.00, -1.00, 0.0, 1080.0) matrix(1.00, 0.00, -0.00, -1.00, 786.7, 510.0)" xml:space="preserve">’</text><text fill="#000" font-family="HelveticaNeue-Light" font-size="80" transform="matrix(1.00, 0.00, -0.00, -1.00, 0.0, 1080.0) matrix(1.00, 0.00, -0.00, -1.00, 807.5, 510.0)" xml:space="preserve">t</text><text fill="#000" font-family="HelveticaNeue-Light" font-size="80" transform="matrix(1.00, 0.00, -0.00, -1.00, 0.0, 1080.0) matrix(1.00, 0.00, -0.00, -1.00, 853.4, 510.0)" xml:space="preserve">d</text><text fill="#000" font-family="HelveticaNeue-Light" font-size="80" transform="matrix(1.00, 0.00, -0.00, -1.00, 0.0, 1080.0) matrix(1.00, 0.00, -0.00, -1.00, 899.4, 510.0)" xml:space="preserve">o</text><text fill="#000" font-family="HelveticaNeue-Light" font-size="80" transform="matrix(1.00, 0.00, -0.00, -1.00, 0.0, 1080.0) matrix(1.00, 0.00, -0.00, -1.00, 966.1, 510.0)" xml:space="preserve">i</text><text fill="#000" font-family="HelveticaNeue-Light" font-size="80" transform="matrix(1.00, 0.00, -0.00, -1.00, 0.0, 1080.0) matrix(1.00, 0.00, -0.00, -1.00, 980.9, 510.0)" xml:space="preserve">t</text><text fill="#000" font-family="HelveticaNeue-Light" font-size="80" transform="matrix(1.00, 0.00, -0.00, -1.00, 0.0, 1080.0) matrix(1.00, 0.00, -0.00, -1.00, 1004.6, 510.0)" xml:space="preserve">,</text><text fill="#000" font-family="HelveticaNeue-Light" font-size="80" transform="matrix(1.00, 0.00, -0.00, -1.00, 0.0, 1080.0) matrix(1.00, 0.00, -0.00, -1.00, 1049.0, 510.0)" xml:space="preserve">w</text><text fill="#000" font-family="HelveticaNeue-Light" font-size="80" transform="matrix(1.00, 0.00, -0.00, -1.00, 0.0, 1080.0) matrix(1.00, 0.00, -0.00, -1.00, 1108.3, 510.0)" xml:space="preserve">h</text><text fill="#000" font-family="HelveticaNeue-Light" font-size="80" transform="matrix(1.00, 0.00, -0.00, -1.00, 0.0, 1080.0) matrix(1.00, 0.00, -0.00, -1.00, 1151.3, 510.0)" xml:space="preserve">o</text><text fill="#000" font-family="HelveticaNeue-Light" font-size="80" transform="matrix(1.00, 0.00, -0.00, -1.00, 0.0, 1080.0) matrix(1.00, 0.00, -0.00, -1.00, 1218.0, 510.0)" xml:space="preserve">w</text><text fill="#000" font-family="HelveticaNeue-Light" font-size="80" transform="matrix(1.00, 0.00, -0.00, -1.00, 0.0, 1080.0) matrix(1.00, 0.00, -0.00, -1.00, 1277.3, 510.0)" xml:space="preserve">i</text><text fill="#000" font-family="HelveticaNeue-Light" font-size="80" transform="matrix(1.00, 0.00, -0.00, -1.00, 0.0, 1080.0) matrix(1.00, 0.00, -0.00, -1.00, 1292.1, 510.0)" xml:space="preserve">l</text><text fill="#000" font-family="HelveticaNeue-Light" font-size="80" transform="matrix(1.00, 0.00, -0.00, -1.00, 0.0, 1080.0) matrix(1.00, 0.00, -0.00, -1.00, 1306.9, 510.0)" xml:space="preserve">l</text><text fill="#000" font-family="HelveticaNeue-Light" font-size="80" transform="matrix(1.00, 0.00, -0.00, -1.00, 0.0, 1080.0) matrix(1.00, 0.00, -0.00, -1.00, 1321.7, 510.0)" xml:space="preserve">?</text><text fill="#000" font-family="HelveticaNeue-Light" font-size="80" transform="matrix(1.00, 0.00, -0.00, -1.00, 0.0, 1080.0) matrix(1.00, 0.00, -0.00, -1.00, 1364.6, 510.0)" xml:space="preserve">”</text></g></svg>