<svg xmlns="http://www.w3.org/2000/svg" xmlns:xlink="http://www.w3.org/1999/xlink" stroke-miterlimit="4" clip-rule="evenodd" viewBox="0 0 289 94"><desc>SVG generated by Keynote</desc><g><text fill="#000" font-family="HelveticaNeue-Light" font-size="100" transform="matrix(1.00, 0.00, -0.00, -1.00, 0.0, 94.0) matrix(1.00, 0.00, -0.00, -1.00, -4.0, 21.0)" xml:space="preserve">m</text><text fill="#000" font-family="HelveticaNeue-Light" font-size="100" transform="matrix(1.00, 0.00, -0.00, -1.00, 0.0, 94.0) matrix(1.00, 0.00, -0.00, -1.00, 79.3, 21.0)" xml:space="preserve">y</text><text fill="#000" font-family="HelveticaNeue-Light" font-size="100" transform="matrix(1.00, 0.00, -0.00, -1.00, 0.0, 94.0) matrix(1.00, 0.00, -0.00, -1.00, 153.4, 21.0)" xml:space="preserve">l</text><text fill="#000" font-family="HelveticaNeue-Light" font-size="100" transform="matrix(1.00, 0.00, -0.00, -1.00, 0.0, 94.0) matrix(1.00, 0.00, -0.00, -1.00, 171.9, 21.0)" xml:space="preserve">i</text><text fill="#000" font-family="HelveticaNeue-Light" font-size="100" transform="matrix(1.00, 0.00, -0.00, -1.00, 0.0, 94.0) matrix(1.00, 0.00, -0.00, -1.00, 190.4, 21.0)" xml:space="preserve">e</text><text fill="#000" font-family="HelveticaNeue-Light" font-size="100" transform="matrix(1.00, 0.00, -0.00, -1.00, 0.0, 94.0) matrix(1.00, 0.00, -0.00, -1.00, 242.3, 21.0)" xml:space="preserve">s</text></g></svg>