<svg xmlns="http://www.w3.org/2000/svg" xmlns:xlink="http://www.w3.org/1999/xlink" stroke-miterlimit="4" clip-rule="evenodd" viewBox="0 0 1920 1080"><desc>SVG generated by Keynote</desc><g><path fill="#FEFFFE" d="M 0.0 1080.0 L 1920.0 1080.0 L 1920.0 0.0 L 0.0 0.0 Z M 0.0 1080.0" transform="matrix(1.00, 0.00, -0.00, -1.00, 0.0, 1080.0)"/><text fill="#000" font-family="HelveticaNeue" font-size="112" transform="matrix(1.00, 0.00, -0.00, -1.00, 0.0, 1080.0) matrix(1.00, 0.00, -0.00, -1.00, 253.0, 577.0)" xml:space="preserve">E</text><text fill="#000" font-family="HelveticaNeue" font-size="112" transform="matrix(1.00, 0.00, -0.00, -1.00, 0.0, 1080.0) matrix(1.00, 0.00, -0.00, -1.00, 321.4, 577.0)" xml:space="preserve">n</text><text fill="#000" font-family="HelveticaNeue" font-size="112" transform="matrix(1.00, 0.00, -0.00, -1.00, 0.0, 1080.0) matrix(1.00, 0.00, -0.00, -1.00, 383.7, 577.0)" xml:space="preserve">d</text><text fill="#000" font-family="HelveticaNeue" font-size="112" transform="matrix(1.00, 0.00, -0.00, -1.00, 0.0, 1080.0) matrix(1.00, 0.00, -0.00, -1.00, 481.3, 577.0)" xml:space="preserve">o</text><text fill="#000" font-family="HelveticaNeue" font-size="112" transform="matrix(1.00, 0.00, -0.00, -1.00, 0.0, 1080.0) matrix(1.00, 0.00, -0.00, -1.00, 545.5, 577.0)" xml:space="preserve">f</text><text fill="#000" font-family="HelveticaNeue" font-size="112" transform="matrix(1.00, 0.00, -0.00, -1.00, 0.0, 1080.0) matrix(1.00, 0.00, -0.00, -1.00, 253.0, 420.0)" xml:space="preserve">t</text><text fill="#000" font-family="HelveticaNeue" font-size="112" transform="matrix(1.00, 0.00, -0.00, -1.00, 0.0, 1080.0) matrix(1.00, 0.00, -0.00, -1.00, 288.3, 420.0)" xml:space="preserve">h</text><text fill="#000" font-family="HelveticaNeue" font-size="112" transform="matrix(1.00, 0.00, -0.00, -1.00, 0.0, 1080.0) matrix(1.00, 0.00, -0.00, -1.00, 350.6, 420.0)" xml:space="preserve">e</text><text fill="#000" font-family="HelveticaNeue" font-size="112" transform="matrix(1.00, 0.00, -0.00, -1.00, 0.0, 1080.0) matrix(1.00, 0.00, -0.00, -1.00, 441.8, 420.0)" xml:space="preserve">w</text><text fill="#000" font-family="HelveticaNeue" font-size="112" transform="matrix(1.00, 0.00, -0.00, -1.00, 0.0, 1080.0) matrix(1.00, 0.00, -0.00, -1.00, 526.7, 420.0)" xml:space="preserve">o</text><text fill="#000" font-family="HelveticaNeue" font-size="112" transform="matrix(1.00, 0.00, -0.00, -1.00, 0.0, 1080.0) matrix(1.00, 0.00, -0.00, -1.00, 591.0, 420.0)" xml:space="preserve">r</text><text fill="#000" font-family="HelveticaNeue" font-size="112" transform="matrix(1.00, 0.00, -0.00, -1.00, 0.0, 1080.0) matrix(1.00, 0.00, -0.00, -1.00, 628.3, 420.0)" xml:space="preserve">l</text><text fill="#000" font-family="HelveticaNeue" font-size="112" transform="matrix(1.00, 0.00, -0.00, -1.00, 0.0, 1080.0) matrix(1.00, 0.00, -0.00, -1.00, 653.2, 420.0)" xml:space="preserve">d</text></g></svg>