<svg xmlns="http://www.w3.org/2000/svg" xmlns:xlink="http://www.w3.org/1999/xlink" stroke-miterlimit="4" clip-rule="evenodd" viewBox="0 0 1920 1080"><desc>SVG generated by Keynote</desc><g transform="matrix(1.00, 0.00, -0.00, -1.00, 0.0, 1080.0)"><path fill="#FEFFFE" d="M 0.0 1080.0 L 1920.0 1080.0 L 1920.0 0.0 L 0.0 0.0 Z M 0.0 1080.0"/><text fill="#000" font-family="HelveticaNeue-Light" font-size="80" transform="matrix(1.00, 0.00, -0.00, -1.00, 392.0, 752.0)" xml:space="preserve">s</text><text fill="#000" font-family="HelveticaNeue-Light" font-size="80" transform="matrix(1.00, 0.00, -0.00, -1.00, 430.5, 752.0)" xml:space="preserve">h</text><text fill="#000" font-family="HelveticaNeue-Light" font-size="80" transform="matrix(1.00, 0.00, -0.00, -1.00, 473.4, 752.0)" xml:space="preserve">o</text><text fill="#000" font-family="HelveticaNeue-Light" font-size="80" transform="matrix(1.00, 0.00, -0.00, -1.00, 517.9, 752.0)" xml:space="preserve">r</text><text fill="#000" font-family="HelveticaNeue-Light" font-size="80" transform="matrix(1.00, 0.00, -0.00, -1.00, 543.1, 752.0)" xml:space="preserve">t</text><text fill="#000" font-family="HelveticaNeue-Light" font-size="80" transform="matrix(1.00, 0.00, -0.00, -1.00, 566.8, 752.0)" xml:space="preserve">-</text><text fill="#000" font-family="HelveticaNeue-Light" font-size="80" transform="matrix(1.00, 0.00, -0.00, -1.00, 596.4, 752.0)" xml:space="preserve">t</text><text fill="#000" font-family="HelveticaNeue-Light" font-size="80" transform="matrix(1.00, 0.00, -0.00, -1.00, 620.1, 752.0)" xml:space="preserve">e</text><text fill="#000" font-family="HelveticaNeue-Light" font-size="80" transform="matrix(1.00, 0.00, -0.00, -1.00, 661.6, 752.0)" xml:space="preserve">r</text><text fill="#000" font-family="HelveticaNeue-Light" font-size="80" transform="matrix(1.00, 0.00, -0.00, -1.00, 686.8, 752.0)" xml:space="preserve">m</text><text fill="#000" font-family="HelveticaNeue-Light" font-size="80" transform="matrix(1.00, 0.00, -0.00, -1.00, 775.7, 752.0)" xml:space="preserve">t</text><text fill="#000" font-family="HelveticaNeue-Light" font-size="80" transform="matrix(1.00, 0.00, -0.00, -1.00, 799.4, 752.0)" xml:space="preserve">h</text><text fill="#000" font-family="HelveticaNeue-Light" font-size="80" transform="matrix(1.00, 0.00, -0.00, -1.00, 842.3, 752.0)" xml:space="preserve">i</text><text fill="#000" font-family="HelveticaNeue-Light" font-size="80" transform="matrix(1.00, 0.00, -0.00, -1.00, 857.1, 752.0)" xml:space="preserve">n</text><text fill="#000" font-family="HelveticaNeue-Light" font-size="80" transform="matrix(1.00, 0.00, -0.00, -1.00, 900.1, 752.0)" xml:space="preserve">k</text><text fill="#000" font-family="HelveticaNeue-Light" font-size="80" transform="matrix(1.00, 0.00, -0.00, -1.00, 940.1, 752.0)" xml:space="preserve">i</text><text fill="#000" font-family="HelveticaNeue-Light" font-size="80" transform="matrix(1.00, 0.00, -0.00, -1.00, 954.9, 752.0)" xml:space="preserve">n</text><text fill="#000" font-family="HelveticaNeue-Light" font-size="80" transform="matrix(1.00, 0.00, -0.00, -1.00, 997.8, 752.0)" xml:space="preserve">g</text><text fill="#000" font-family="HelveticaNeue-Light" font-size="80" transform="matrix(1.00, 0.00, -0.00, -1.00, 1042.3, 752.0)" xml:space="preserve">,</text><text fill="#000" font-family="HelveticaNeue-Light" font-size="80" transform="matrix(1.00, 0.00, -0.00, -1.00, 1086.8, 752.0)" xml:space="preserve">s</text><text fill="#000" font-family="HelveticaNeue-Light" font-size="80" transform="matrix(1.00, 0.00, -0.00, -1.00, 1125.3, 752.0)" xml:space="preserve">p</text><text fill="#000" font-family="HelveticaNeue-Light" font-size="80" transform="matrix(1.00, 0.00, -0.00, -1.00, 1171.2, 752.0)" xml:space="preserve">r</text><text fill="#000" font-family="HelveticaNeue-Light" font-size="80" transform="matrix(1.00, 0.00, -0.00, -1.00, 1196.4, 752.0)" xml:space="preserve">i</text><text fill="#000" font-family="HelveticaNeue-Light" font-size="80" transform="matrix(1.00, 0.00, -0.00, -1.00, 1211.2, 752.0)" xml:space="preserve">n</text><text fill="#000" font-family="HelveticaNeue-Light" font-size="80" transform="matrix(1.00, 0.00, -0.00, -1.00, 1254.2, 752.0)" xml:space="preserve">t</text><text fill="#000" font-family="HelveticaNeue-Light" font-size="80" transform="matrix(1.00, 0.00, -0.00, -1.00, 1277.8, 752.0)" xml:space="preserve">s</text><text fill="#000" font-family="HelveticaNeue-Light" font-size="80" transform="matrix(1.00, 0.00, -0.00, -1.00, 1316.3, 752.0)" xml:space="preserve">,</text><text fill="#000" font-family="HelveticaNeue-Light" font-size="80" transform="matrix(1.00, 0.00, -0.00, -1.00, 1360.8, 752.0)" xml:space="preserve">h</text><text fill="#000" font-family="HelveticaNeue-Light" font-size="80" transform="matrix(1.00, 0.00, -0.00, -1.00, 1403.8, 752.0)" xml:space="preserve">y</text><text fill="#000" font-family="HelveticaNeue-Light" font-size="80" transform="matrix(1.00, 0.00, -0.00, -1.00, 1440.8, 752.0)" xml:space="preserve">p</text><text fill="#000" font-family="HelveticaNeue-Light" font-size="80" transform="matrix(1.00, 0.00, -0.00, -1.00, 1486.7, 752.0)" xml:space="preserve">e</text><image width="960" height="340" transform="matrix(1.32, 0.00, -0.00, -1.32, 326.0, 621.0)" xlink:href="CE9E5A3375FA15E0305AE045234D0849.png"/></g></svg>