<svg xmlns="http://www.w3.org/2000/svg" xmlns:xlink="http://www.w3.org/1999/xlink" stroke-miterlimit="4" clip-rule="evenodd" viewBox="0 0 862 74"><desc>SVG generated by Keynote</desc><g><text fill="#000" font-family="HelveticaNeue-Light" font-size="80" transform="matrix(1.00, 0.00, -0.00, -1.00, 0.0, 74.0) matrix(1.00, 0.00, -0.00, -1.00, -3.0, 13.0)" xml:space="preserve">“</text><text fill="#000" font-family="HelveticaNeue-Light" font-size="80" transform="matrix(1.00, 0.00, -0.00, -1.00, 0.0, 74.0) matrix(1.00, 0.00, -0.00, -1.00, 26.6, 13.0)" xml:space="preserve">i</text><text fill="#000" font-family="HelveticaNeue-Light" font-size="80" transform="matrix(1.00, 0.00, -0.00, -1.00, 0.0, 74.0) matrix(1.00, 0.00, -0.00, -1.00, 41.4, 13.0)" xml:space="preserve">f</text><text fill="#000" font-family="HelveticaNeue-Light" font-size="80" transform="matrix(1.00, 0.00, -0.00, -1.00, 0.0, 74.0) matrix(1.00, 0.00, -0.00, -1.00, 84.4, 13.0)" xml:space="preserve">I</text><text fill="#000" font-family="HelveticaNeue-Light" font-size="80" transform="matrix(1.00, 0.00, -0.00, -1.00, 0.0, 74.0) matrix(1.00, 0.00, -0.00, -1.00, 124.4, 13.0)" xml:space="preserve">d</text><text fill="#000" font-family="HelveticaNeue-Light" font-size="80" transform="matrix(1.00, 0.00, -0.00, -1.00, 0.0, 74.0) matrix(1.00, 0.00, -0.00, -1.00, 170.3, 13.0)" xml:space="preserve">o</text><text fill="#000" font-family="HelveticaNeue-Light" font-size="80" transform="matrix(1.00, 0.00, -0.00, -1.00, 0.0, 74.0) matrix(1.00, 0.00, -0.00, -1.00, 214.8, 13.0)" xml:space="preserve">n</text><text fill="#000" font-family="HelveticaNeue-Light" font-size="80" transform="matrix(1.00, 0.00, -0.00, -1.00, 0.0, 74.0) matrix(1.00, 0.00, -0.00, -1.00, 257.7, 13.0)" xml:space="preserve">’</text><text fill="#000" font-family="HelveticaNeue-Light" font-size="80" transform="matrix(1.00, 0.00, -0.00, -1.00, 0.0, 74.0) matrix(1.00, 0.00, -0.00, -1.00, 278.5, 13.0)" xml:space="preserve">t</text><text fill="#000" font-family="HelveticaNeue-Light" font-size="80" transform="matrix(1.00, 0.00, -0.00, -1.00, 0.0, 74.0) matrix(1.00, 0.00, -0.00, -1.00, 324.4, 13.0)" xml:space="preserve">d</text><text fill="#000" font-family="HelveticaNeue-Light" font-size="80" transform="matrix(1.00, 0.00, -0.00, -1.00, 0.0, 74.0) matrix(1.00, 0.00, -0.00, -1.00, 370.4, 13.0)" xml:space="preserve">o</text><text fill="#000" font-family="HelveticaNeue-Light" font-size="80" transform="matrix(1.00, 0.00, -0.00, -1.00, 0.0, 74.0) matrix(1.00, 0.00, -0.00, -1.00, 437.1, 13.0)" xml:space="preserve">i</text><text fill="#000" font-family="HelveticaNeue-Light" font-size="80" transform="matrix(1.00, 0.00, -0.00, -1.00, 0.0, 74.0) matrix(1.00, 0.00, -0.00, -1.00, 451.9, 13.0)" xml:space="preserve">t</text><text fill="#000" font-family="HelveticaNeue-Light" font-size="80" transform="matrix(1.00, 0.00, -0.00, -1.00, 0.0, 74.0) matrix(1.00, 0.00, -0.00, -1.00, 475.6, 13.0)" xml:space="preserve">,</text><text fill="#000" font-family="HelveticaNeue-Light" font-size="80" transform="matrix(1.00, 0.00, -0.00, -1.00, 0.0, 74.0) matrix(1.00, 0.00, -0.00, -1.00, 520.0, 13.0)" xml:space="preserve">w</text><text fill="#000" font-family="HelveticaNeue-Light" font-size="80" transform="matrix(1.00, 0.00, -0.00, -1.00, 0.0, 74.0) matrix(1.00, 0.00, -0.00, -1.00, 579.3, 13.0)" xml:space="preserve">h</text><text fill="#000" font-family="HelveticaNeue-Light" font-size="80" transform="matrix(1.00, 0.00, -0.00, -1.00, 0.0, 74.0) matrix(1.00, 0.00, -0.00, -1.00, 622.3, 13.0)" xml:space="preserve">o</text><text fill="#000" font-family="HelveticaNeue-Light" font-size="80" transform="matrix(1.00, 0.00, -0.00, -1.00, 0.0, 74.0) matrix(1.00, 0.00, -0.00, -1.00, 689.0, 13.0)" xml:space="preserve">w</text><text fill="#000" font-family="HelveticaNeue-Light" font-size="80" transform="matrix(1.00, 0.00, -0.00, -1.00, 0.0, 74.0) matrix(1.00, 0.00, -0.00, -1.00, 748.3, 13.0)" xml:space="preserve">i</text><text fill="#000" font-family="HelveticaNeue-Light" font-size="80" transform="matrix(1.00, 0.00, -0.00, -1.00, 0.0, 74.0) matrix(1.00, 0.00, -0.00, -1.00, 763.1, 13.0)" xml:space="preserve">l</text><text fill="#000" font-family="HelveticaNeue-Light" font-size="80" transform="matrix(1.00, 0.00, -0.00, -1.00, 0.0, 74.0) matrix(1.00, 0.00, -0.00, -1.00, 777.9, 13.0)" xml:space="preserve">l</text><text fill="#000" font-family="HelveticaNeue-Light" font-size="80" transform="matrix(1.00, 0.00, -0.00, -1.00, 0.0, 74.0) matrix(1.00, 0.00, -0.00, -1.00, 792.7, 13.0)" xml:space="preserve">?</text><text fill="#000" font-family="HelveticaNeue-Light" font-size="80" transform="matrix(1.00, 0.00, -0.00, -1.00, 0.0, 74.0) matrix(1.00, 0.00, -0.00, -1.00, 835.6, 13.0)" xml:space="preserve">”</text></g></svg>