<svg xmlns="http://www.w3.org/2000/svg" xmlns:xlink="http://www.w3.org/1999/xlink" stroke-miterlimit="4" clip-rule="evenodd" viewBox="0 0 1920 1080"><desc>SVG generated by Keynote</desc><g transform="matrix(1.00, 0.00, -0.00, -1.00, 0.0, 1080.0)"><path fill="#FEFFFE" d="M 0.0 1080.0 L 1920.0 1080.0 L 1920.0 0.0 L 0.0 0.0 Z M 0.0 1080.0"/><image width="960" height="339" transform="matrix(1.57, 0.00, -0.00, -1.56, 208.0, 737.0)" xlink:href="D47C9541F5847636C3773F14AE7EDF05.png"/><text fill="#000" font-family="HelveticaNeue-Light" font-size="70" transform="matrix(1.00, 0.00, -0.00, -1.00, 661.0, 869.0)" xml:space="preserve">H</text><text fill="#000" font-family="HelveticaNeue-Light" font-size="70" transform="matrix(1.00, 0.00, -0.00, -1.00, 710.3, 869.0)" xml:space="preserve">i</text><text fill="#000" font-family="HelveticaNeue-Light" font-size="70" transform="matrix(1.00, 0.00, -0.00, -1.00, 723.2, 869.0)" xml:space="preserve">r</text><text fill="#000" font-family="HelveticaNeue-Light" font-size="70" transform="matrix(1.00, 0.00, -0.00, -1.00, 744.0, 869.0)" xml:space="preserve">e</text><text fill="#000" font-family="HelveticaNeue-Light" font-size="70" transform="matrix(1.00, 0.00, -0.00, -1.00, 799.8, 869.0)" xml:space="preserve">t</text><text fill="#000" font-family="HelveticaNeue-Light" font-size="70" transform="matrix(1.00, 0.00, -0.00, -1.00, 820.5, 869.0)" xml:space="preserve">h</text><text fill="#000" font-family="HelveticaNeue-Light" font-size="70" transform="matrix(1.00, 0.00, -0.00, -1.00, 858.1, 869.0)" xml:space="preserve">e</text><text fill="#000" font-family="HelveticaNeue-Light" font-size="70" transform="matrix(1.00, 0.00, -0.00, -1.00, 913.9, 869.0)" xml:space="preserve">m</text><text fill="#000" font-family="HelveticaNeue-Light" font-size="70" transform="matrix(1.00, 0.00, -0.00, -1.00, 972.2, 869.0)" xml:space="preserve">a</text><text fill="#000" font-family="HelveticaNeue-Light" font-size="70" transform="matrix(1.00, 0.00, -0.00, -1.00, 1008.5, 869.0)" xml:space="preserve">i</text><text fill="#000" font-family="HelveticaNeue-Light" font-size="70" transform="matrix(1.00, 0.00, -0.00, -1.00, 1021.5, 869.0)" xml:space="preserve">n</text><text fill="#000" font-family="HelveticaNeue-Light" font-size="70" transform="matrix(1.00, 0.00, -0.00, -1.00, 1059.1, 869.0)" xml:space="preserve">t</text><text fill="#000" font-family="HelveticaNeue-Light" font-size="70" transform="matrix(1.00, 0.00, -0.00, -1.00, 1079.8, 869.0)" xml:space="preserve">a</text><text fill="#000" font-family="HelveticaNeue-Light" font-size="70" transform="matrix(1.00, 0.00, -0.00, -1.00, 1116.1, 869.0)" xml:space="preserve">i</text><text fill="#000" font-family="HelveticaNeue-Light" font-size="70" transform="matrix(1.00, 0.00, -0.00, -1.00, 1129.1, 869.0)" xml:space="preserve">n</text><text fill="#000" font-family="HelveticaNeue-Light" font-size="70" transform="matrix(1.00, 0.00, -0.00, -1.00, 1166.7, 869.0)" xml:space="preserve">e</text><text fill="#000" font-family="HelveticaNeue-Light" font-size="70" transform="matrix(1.00, 0.00, -0.00, -1.00, 1203.0, 869.0)" xml:space="preserve">r</text><text fill="#000" font-family="HelveticaNeue-Light" font-size="70" transform="matrix(1.00, 0.00, -0.00, -1.00, 1225.1, 869.0)" xml:space="preserve">s</text></g></svg>