<svg xmlns="http://www.w3.org/2000/svg" xmlns:xlink="http://www.w3.org/1999/xlink" stroke-miterlimit="4" clip-rule="evenodd" viewBox="0 0 1920 1080"><desc>SVG generated by Keynote</desc><g transform="matrix(1.00, 0.00, -0.00, -1.00, 0.0, 1080.0)"><path fill="#FEFFFE" d="M 0.0 1080.0 L 1920.0 1080.0 L 1920.0 0.0 L 0.0 0.0 Z M 0.0 1080.0"/><image width="594" height="540" transform="matrix(2.00, 0.00, -0.00, -2.00, 731.0, 1080.0)" xlink:href="DDC0BA0418B09D6D2A445282823706F3.png"/><text fill="#000" font-family="HelveticaNeue-Light" font-size="70" transform="matrix(1.00, 0.00, -0.00, -1.00, 24.0, 598.0)" xml:space="preserve">5</text><text fill="#000" font-family="HelveticaNeue-Light" font-size="70" transform="matrix(1.00, 0.00, -0.00, -1.00, 62.9, 598.0)" xml:space="preserve">m</text><text fill="#000" font-family="HelveticaNeue-Light" font-size="70" transform="matrix(1.00, 0.00, -0.00, -1.00, 140.7, 598.0)" xml:space="preserve">d</text><text fill="#000" font-family="HelveticaNeue-Light" font-size="70" transform="matrix(1.00, 0.00, -0.00, -1.00, 180.9, 598.0)" xml:space="preserve">o</text><text fill="#000" font-family="HelveticaNeue-Light" font-size="70" transform="matrix(1.00, 0.00, -0.00, -1.00, 219.8, 598.0)" xml:space="preserve">w</text><text fill="#000" font-family="HelveticaNeue-Light" font-size="70" transform="matrix(1.00, 0.00, -0.00, -1.00, 271.7, 598.0)" xml:space="preserve">n</text><text fill="#000" font-family="HelveticaNeue-Light" font-size="70" transform="matrix(1.00, 0.00, -0.00, -1.00, 309.2, 598.0)" xml:space="preserve">l</text><text fill="#000" font-family="HelveticaNeue-Light" font-size="70" transform="matrix(1.00, 0.00, -0.00, -1.00, 322.2, 598.0)" xml:space="preserve">o</text><text fill="#000" font-family="HelveticaNeue-Light" font-size="70" transform="matrix(1.00, 0.00, -0.00, -1.00, 361.1, 598.0)" xml:space="preserve">a</text><text fill="#000" font-family="HelveticaNeue-Light" font-size="70" transform="matrix(1.00, 0.00, -0.00, -1.00, 397.4, 598.0)" xml:space="preserve">d</text><text fill="#000" font-family="HelveticaNeue-Light" font-size="70" transform="matrix(1.00, 0.00, -0.00, -1.00, 437.6, 598.0)" xml:space="preserve">s</text><text fill="#000" font-family="HelveticaNeue-Light" font-size="70" transform="matrix(1.00, 0.00, -0.00, -1.00, 490.8, 598.0)" xml:space="preserve">a</text><text fill="#000" font-family="HelveticaNeue-Light" font-size="70" transform="matrix(1.00, 0.00, -0.00, -1.00, 546.5, 598.0)" xml:space="preserve">m</text><text fill="#000" font-family="HelveticaNeue-Light" font-size="70" transform="matrix(1.00, 0.00, -0.00, -1.00, 604.9, 598.0)" xml:space="preserve">o</text><text fill="#000" font-family="HelveticaNeue-Light" font-size="70" transform="matrix(1.00, 0.00, -0.00, -1.00, 643.8, 598.0)" xml:space="preserve">n</text><text fill="#000" font-family="HelveticaNeue-Light" font-size="70" transform="matrix(1.00, 0.00, -0.00, -1.00, 681.4, 598.0)" xml:space="preserve">t</text><text fill="#000" font-family="HelveticaNeue-Light" font-size="70" transform="matrix(1.00, 0.00, -0.00, -1.00, 702.1, 598.0)" xml:space="preserve">h</text><text fill="#000" font-family="HelveticaNeue-Light" font-size="70" transform="matrix(1.00, 0.00, -0.00, -1.00, 280.0, 513.0)" xml:space="preserve">m</text><text fill="#000" font-family="HelveticaNeue-Light" font-size="70" transform="matrix(1.00, 0.00, -0.00, -1.00, 338.3, 513.0)" xml:space="preserve">e</text><text fill="#000" font-family="HelveticaNeue-Light" font-size="70" transform="matrix(1.00, 0.00, -0.00, -1.00, 374.6, 513.0)" xml:space="preserve">a</text><text fill="#000" font-family="HelveticaNeue-Light" font-size="70" transform="matrix(1.00, 0.00, -0.00, -1.00, 411.0, 513.0)" xml:space="preserve">n</text><text fill="#000" font-family="HelveticaNeue-Light" font-size="70" transform="matrix(1.00, 0.00, -0.00, -1.00, 448.6, 513.0)" xml:space="preserve">s</text><text fill="#000" font-family="HelveticaNeue-Light" font-size="70" transform="matrix(1.00, 0.00, -0.00, -1.00, 30.0, 428.0)" xml:space="preserve">w</text><text fill="#000" font-family="HelveticaNeue-Light" font-size="70" transform="matrix(1.00, 0.00, -0.00, -1.00, 81.9, 428.0)" xml:space="preserve">h</text><text fill="#000" font-family="HelveticaNeue-Light" font-size="70" transform="matrix(1.00, 0.00, -0.00, -1.00, 119.5, 428.0)" xml:space="preserve">a</text><text fill="#000" font-family="HelveticaNeue-Light" font-size="70" transform="matrix(1.00, 0.00, -0.00, -1.00, 155.8, 428.0)" xml:space="preserve">t</text><text fill="#000" font-family="HelveticaNeue-Light" font-size="70" transform="matrix(1.00, 0.00, -0.00, -1.00, 196.0, 428.0)" xml:space="preserve">k</text><text fill="#000" font-family="HelveticaNeue-Light" font-size="70" transform="matrix(1.00, 0.00, -0.00, -1.00, 231.0, 428.0)" xml:space="preserve">i</text><text fill="#000" font-family="HelveticaNeue-Light" font-size="70" transform="matrix(1.00, 0.00, -0.00, -1.00, 243.9, 428.0)" xml:space="preserve">n</text><text fill="#000" font-family="HelveticaNeue-Light" font-size="70" transform="matrix(1.00, 0.00, -0.00, -1.00, 281.5, 428.0)" xml:space="preserve">d</text><text fill="#000" font-family="HelveticaNeue-Light" font-size="70" transform="matrix(1.00, 0.00, -0.00, -1.00, 341.2, 428.0)" xml:space="preserve">o</text><text fill="#000" font-family="HelveticaNeue-Light" font-size="70" transform="matrix(1.00, 0.00, -0.00, -1.00, 380.1, 428.0)" xml:space="preserve">f</text><text fill="#000" font-family="HelveticaNeue-Light" font-size="70" transform="matrix(1.00, 0.00, -0.00, -1.00, 417.7, 428.0)" xml:space="preserve">r</text><text fill="#000" font-family="HelveticaNeue-Light" font-size="70" transform="matrix(1.00, 0.00, -0.00, -1.00, 438.5, 428.0)" xml:space="preserve">e</text><text fill="#000" font-family="HelveticaNeue-Light" font-size="70" transform="matrix(1.00, 0.00, -0.00, -1.00, 474.8, 428.0)" xml:space="preserve">s</text><text fill="#000" font-family="HelveticaNeue-Light" font-size="70" transform="matrix(1.00, 0.00, -0.00, -1.00, 508.5, 428.0)" xml:space="preserve">p</text><text fill="#000" font-family="HelveticaNeue-Light" font-size="70" transform="matrix(1.00, 0.00, -0.00, -1.00, 548.6, 428.0)" xml:space="preserve">o</text><text fill="#000" font-family="HelveticaNeue-Light" font-size="70" transform="matrix(1.00, 0.00, -0.00, -1.00, 587.6, 428.0)" xml:space="preserve">n</text><text fill="#000" font-family="HelveticaNeue-Light" font-size="70" transform="matrix(1.00, 0.00, -0.00, -1.00, 625.1, 428.0)" xml:space="preserve">s</text><text fill="#000" font-family="HelveticaNeue-Light" font-size="70" transform="matrix(1.00, 0.00, -0.00, -1.00, 658.8, 428.0)" xml:space="preserve">e</text><text fill="#000" font-family="HelveticaNeue-Light" font-size="70" transform="matrix(1.00, 0.00, -0.00, -1.00, 695.1, 428.0)" xml:space="preserve">?</text></g></svg>