<svg xmlns="http://www.w3.org/2000/svg" xmlns:xlink="http://www.w3.org/1999/xlink" stroke-miterlimit="4" clip-rule="evenodd" viewBox="0 0 1920 1080"><desc>SVG generated by Keynote</desc><g transform="matrix(1.00, 0.00, -0.00, -1.00, 0.0, 1080.0)"><path fill="#FEFFFE" d="M 0.0 1080.0 L 1920.0 1080.0 L 1920.0 0.0 L 0.0 0.0 Z M 0.0 1080.0"/><image width="826" height="540" transform="matrix(1.64, 0.00, -0.00, -1.64, 281.0, 916.0)" xlink:href="../../3F9F4243-D100-4A74-88BA-9BFA62A6A00B/assets/0A98C7C48C5A0FE4D9903BBEAAACF422.png"/><text fill="#000" font-family="HelveticaNeue-Light" font-size="84" transform="matrix(1.00, 0.00, -0.00, -1.00, 843.0, 952.0)" xml:space="preserve">T</text><text fill="#000" font-family="HelveticaNeue-Light" font-size="84" transform="matrix(1.00, 0.00, -0.00, -1.00, 880.4, 952.0)" xml:space="preserve">w</text><text fill="#000" font-family="HelveticaNeue-Light" font-size="84" transform="matrix(1.00, 0.00, -0.00, -1.00, 942.6, 952.0)" xml:space="preserve">i</text><text fill="#000" font-family="HelveticaNeue-Light" font-size="84" transform="matrix(1.00, 0.00, -0.00, -1.00, 958.2, 952.0)" xml:space="preserve">t</text><text fill="#000" font-family="HelveticaNeue-Light" font-size="84" transform="matrix(1.00, 0.00, -0.00, -1.00, 983.0, 952.0)" xml:space="preserve">t</text><text fill="#000" font-family="HelveticaNeue-Light" font-size="84" transform="matrix(1.00, 0.00, -0.00, -1.00, 1007.9, 952.0)" xml:space="preserve">e</text><text fill="#000" font-family="HelveticaNeue-Light" font-size="84" transform="matrix(1.00, 0.00, -0.00, -1.00, 1051.5, 952.0)" xml:space="preserve">r</text></g></svg>