<svg xmlns="http://www.w3.org/2000/svg" xmlns:xlink="http://www.w3.org/1999/xlink" stroke-miterlimit="4" clip-rule="evenodd" viewBox="0 0 1920 1080"><desc>SVG generated by Keynote</desc><g><path fill="#FEFFFE" d="M 0.0 1080.0 L 1920.0 1080.0 L 1920.0 0.0 L 0.0 0.0 Z M 0.0 1080.0" transform="matrix(1.00, 0.00, -0.00, -1.00, 0.0, 1080.0)"/><text fill="#000" font-family="HelveticaNeue-Light" font-size="100" transform="matrix(1.00, 0.00, -0.00, -1.00, 0.0, 1080.0) matrix(1.00, 0.00, -0.00, -1.00, 648.0, 502.0)" xml:space="preserve">T</text><text fill="#000" font-family="HelveticaNeue-Light" font-size="100" transform="matrix(1.00, 0.00, -0.00, -1.00, 0.0, 1080.0) matrix(1.00, 0.00, -0.00, -1.00, 703.6, 502.0)" xml:space="preserve">h</text><text fill="#000" font-family="HelveticaNeue-Light" font-size="100" transform="matrix(1.00, 0.00, -0.00, -1.00, 0.0, 1080.0) matrix(1.00, 0.00, -0.00, -1.00, 757.3, 502.0)" xml:space="preserve">e</text><text fill="#000" font-family="HelveticaNeue-Light" font-size="100" transform="matrix(1.00, 0.00, -0.00, -1.00, 0.0, 1080.0) matrix(1.00, 0.00, -0.00, -1.00, 837.0, 502.0)" xml:space="preserve">f</text><text fill="#000" font-family="HelveticaNeue-Light" font-size="100" transform="matrix(1.00, 0.00, -0.00, -1.00, 0.0, 1080.0) matrix(1.00, 0.00, -0.00, -1.00, 862.9, 502.0)" xml:space="preserve">e</text><text fill="#000" font-family="HelveticaNeue-Light" font-size="100" transform="matrix(1.00, 0.00, -0.00, -1.00, 0.0, 1080.0) matrix(1.00, 0.00, -0.00, -1.00, 914.8, 502.0)" xml:space="preserve">a</text><text fill="#000" font-family="HelveticaNeue-Light" font-size="100" transform="matrix(1.00, 0.00, -0.00, -1.00, 0.0, 1080.0) matrix(1.00, 0.00, -0.00, -1.00, 966.7, 502.0)" xml:space="preserve">r</text><text fill="#000" font-family="HelveticaNeue-Light" font-size="100" transform="matrix(1.00, 0.00, -0.00, -1.00, 0.0, 1080.0) matrix(1.00, 0.00, -0.00, -1.00, 1026.0, 502.0)" xml:space="preserve">i</text><text fill="#000" font-family="HelveticaNeue-Light" font-size="100" transform="matrix(1.00, 0.00, -0.00, -1.00, 0.0, 1080.0) matrix(1.00, 0.00, -0.00, -1.00, 1044.5, 502.0)" xml:space="preserve">s</text><text fill="#000" font-family="HelveticaNeue-Light" font-size="100" transform="matrix(1.00, 0.00, -0.00, -1.00, 0.0, 1080.0) matrix(1.00, 0.00, -0.00, -1.00, 1120.4, 502.0)" xml:space="preserve">r</text><text fill="#000" font-family="HelveticaNeue-Light" font-size="100" transform="matrix(1.00, 0.00, -0.00, -1.00, 0.0, 1080.0) matrix(1.00, 0.00, -0.00, -1.00, 1150.1, 502.0)" xml:space="preserve">e</text><text fill="#000" font-family="HelveticaNeue-Light" font-size="100" transform="matrix(1.00, 0.00, -0.00, -1.00, 0.0, 1080.0) matrix(1.00, 0.00, -0.00, -1.00, 1202.0, 502.0)" xml:space="preserve">a</text><text fill="#000" font-family="HelveticaNeue-Light" font-size="100" transform="matrix(1.00, 0.00, -0.00, -1.00, 0.0, 1080.0) matrix(1.00, 0.00, -0.00, -1.00, 1253.9, 502.0)" xml:space="preserve">l</text></g></svg>