<svg xmlns="http://www.w3.org/2000/svg" xmlns:xlink="http://www.w3.org/1999/xlink" stroke-miterlimit="4" clip-rule="evenodd" viewBox="0 0 1920 1080"><desc>SVG generated by Keynote</desc><g transform="matrix(1.00, 0.00, -0.00, -1.00, 0.0, 1080.0)"><path fill="#FEFFFE" d="M 0.0 1080.0 L 1920.0 1080.0 L 1920.0 0.0 L 0.0 0.0 Z M 0.0 1080.0"/><g><clipPath id="clip-1"><path d="M 150.0 585.0 L 1770.0 585.0 L 1770.0 174.0 L 150.0 174.0 Z M 150.0 584.6"/></clipPath><g clip-path="url(#clip-1)"><image width="961" height="435" transform="matrix(1.69, 0.00, -0.00, -1.69, 150.0, 908.0)" xlink:href="../../0118C423-963C-4BCA-9536-0B2CDE4173C1/assets/3EDAF096032B19BE0AC7F899E0D6E20A.png"/></g></g><text fill="#000" font-family="HelveticaNeue-Light" font-size="84" transform="matrix(1.00, 0.00, -0.00, -1.00, 605.0, 877.0)" xml:space="preserve">R</text><text fill="#000" font-family="HelveticaNeue-Light" font-size="84" transform="matrix(1.00, 0.00, -0.00, -1.00, 661.0, 877.0)" xml:space="preserve">o</text><text fill="#000" font-family="HelveticaNeue-Light" font-size="84" transform="matrix(1.00, 0.00, -0.00, -1.00, 707.7, 877.0)" xml:space="preserve">b</text><text fill="#000" font-family="HelveticaNeue-Light" font-size="84" transform="matrix(1.00, 0.00, -0.00, -1.00, 755.9, 877.0)" xml:space="preserve">o</text><text fill="#000" font-family="HelveticaNeue-Light" font-size="84" transform="matrix(1.00, 0.00, -0.00, -1.00, 802.7, 877.0)" xml:space="preserve">t</text><text fill="#000" font-family="HelveticaNeue-Light" font-size="84" transform="matrix(1.00, 0.00, -0.00, -1.00, 827.5, 877.0)" xml:space="preserve">i</text><text fill="#000" font-family="HelveticaNeue-Light" font-size="84" transform="matrix(1.00, 0.00, -0.00, -1.00, 843.1, 877.0)" xml:space="preserve">c</text><text fill="#000" font-family="HelveticaNeue-Light" font-size="84" transform="matrix(1.00, 0.00, -0.00, -1.00, 910.0, 877.0)" xml:space="preserve">R</text><text fill="#000" font-family="HelveticaNeue-Light" font-size="84" transform="matrix(1.00, 0.00, -0.00, -1.00, 966.0, 877.0)" xml:space="preserve">e</text><text fill="#000" font-family="HelveticaNeue-Light" font-size="84" transform="matrix(1.00, 0.00, -0.00, -1.00, 1009.6, 877.0)" xml:space="preserve">s</text><text fill="#000" font-family="HelveticaNeue-Light" font-size="84" transform="matrix(1.00, 0.00, -0.00, -1.00, 1050.0, 877.0)" xml:space="preserve">p</text><text fill="#000" font-family="HelveticaNeue-Light" font-size="84" transform="matrix(1.00, 0.00, -0.00, -1.00, 1098.2, 877.0)" xml:space="preserve">o</text><text fill="#000" font-family="HelveticaNeue-Light" font-size="84" transform="matrix(1.00, 0.00, -0.00, -1.00, 1145.0, 877.0)" xml:space="preserve">n</text><text fill="#000" font-family="HelveticaNeue-Light" font-size="84" transform="matrix(1.00, 0.00, -0.00, -1.00, 1190.1, 877.0)" xml:space="preserve">s</text><text fill="#000" font-family="HelveticaNeue-Light" font-size="84" transform="matrix(1.00, 0.00, -0.00, -1.00, 1230.5, 877.0)" xml:space="preserve">e</text><text fill="#000" font-family="HelveticaNeue-Light" font-size="84" transform="matrix(1.00, 0.00, -0.00, -1.00, 1274.1, 877.0)" xml:space="preserve">s</text><image width="694" height="58" transform="matrix(1.97, 0.00, -0.00, -1.97, 276.0, 776.0)" xlink:href="../../0118C423-963C-4BCA-9536-0B2CDE4173C1/assets/9DD6D8D44D634C2CC3B6D5496C20C68D.png"/></g></svg>