<svg xmlns="http://www.w3.org/2000/svg" xmlns:xlink="http://www.w3.org/1999/xlink" stroke-miterlimit="4" clip-rule="evenodd" viewBox="0 0 1920 1080"><desc>SVG generated by Keynote</desc><g transform="matrix(1.00, 0.00, -0.00, -1.00, 0.0, 1080.0)"><path fill="#FEFFFE" d="M 0.0 1080.0 L 1920.0 1080.0 L 1920.0 0.0 L 0.0 0.0 Z M 0.0 1080.0"/><image width="608" height="540" transform="matrix(2.00, 0.00, -0.00, -2.00, 600.0, 1080.0)" xlink:href="../../B58DD61E-155D-4817-871F-A779510C273F/assets/DDE1EC01AE93A167EBECFEAD05D014B6.png"/><text fill="#000" font-family="HelveticaNeue-Light" font-size="50" transform="matrix(1.00, 0.00, -0.00, -1.00, 59.0, 551.0)" xml:space="preserve">S</text><text fill="#000" font-family="HelveticaNeue-Light" font-size="50" transform="matrix(1.00, 0.00, -0.00, -1.00, 90.5, 551.0)" xml:space="preserve">u</text><text fill="#000" font-family="HelveticaNeue-Light" font-size="50" transform="matrix(1.00, 0.00, -0.00, -1.00, 117.3, 551.0)" xml:space="preserve">p</text><text fill="#000" font-family="HelveticaNeue-Light" font-size="50" transform="matrix(1.00, 0.00, -0.00, -1.00, 146.1, 551.0)" xml:space="preserve">p</text><text fill="#000" font-family="HelveticaNeue-Light" font-size="50" transform="matrix(1.00, 0.00, -0.00, -1.00, 174.8, 551.0)" xml:space="preserve">o</text><text fill="#000" font-family="HelveticaNeue-Light" font-size="50" transform="matrix(1.00, 0.00, -0.00, -1.00, 202.6, 551.0)" xml:space="preserve">r</text><text fill="#000" font-family="HelveticaNeue-Light" font-size="50" transform="matrix(1.00, 0.00, -0.00, -1.00, 218.3, 551.0)" xml:space="preserve">t</text><text fill="#000" font-family="HelveticaNeue-Light" font-size="50" transform="matrix(1.00, 0.00, -0.00, -1.00, 247.0, 551.0)" xml:space="preserve">m</text><text fill="#000" font-family="HelveticaNeue-Light" font-size="50" transform="matrix(1.00, 0.00, -0.00, -1.00, 288.7, 551.0)" xml:space="preserve">a</text><text fill="#000" font-family="HelveticaNeue-Light" font-size="50" transform="matrix(1.00, 0.00, -0.00, -1.00, 314.6, 551.0)" xml:space="preserve">i</text><text fill="#000" font-family="HelveticaNeue-Light" font-size="50" transform="matrix(1.00, 0.00, -0.00, -1.00, 323.9, 551.0)" xml:space="preserve">n</text><text fill="#000" font-family="HelveticaNeue-Light" font-size="50" transform="matrix(1.00, 0.00, -0.00, -1.00, 350.7, 551.0)" xml:space="preserve">t</text><text fill="#000" font-family="HelveticaNeue-Light" font-size="50" transform="matrix(1.00, 0.00, -0.00, -1.00, 365.5, 551.0)" xml:space="preserve">a</text><text fill="#000" font-family="HelveticaNeue-Light" font-size="50" transform="matrix(1.00, 0.00, -0.00, -1.00, 391.5, 551.0)" xml:space="preserve">i</text><text fill="#000" font-family="HelveticaNeue-Light" font-size="50" transform="matrix(1.00, 0.00, -0.00, -1.00, 400.7, 551.0)" xml:space="preserve">n</text><text fill="#000" font-family="HelveticaNeue-Light" font-size="50" transform="matrix(1.00, 0.00, -0.00, -1.00, 427.6, 551.0)" xml:space="preserve">e</text><text fill="#000" font-family="HelveticaNeue-Light" font-size="50" transform="matrix(1.00, 0.00, -0.00, -1.00, 453.5, 551.0)" xml:space="preserve">r</text><text fill="#000" font-family="HelveticaNeue-Light" font-size="50" transform="matrix(1.00, 0.00, -0.00, -1.00, 469.3, 551.0)" xml:space="preserve">s</text><text fill="#000" font-family="HelveticaNeue-Light" font-size="50" transform="matrix(1.00, 0.00, -0.00, -1.00, 194.0, 491.0)" xml:space="preserve">f</text><text fill="#000" font-family="HelveticaNeue-Light" font-size="50" transform="matrix(1.00, 0.00, -0.00, -1.00, 206.9, 491.0)" xml:space="preserve">u</text><text fill="#000" font-family="HelveticaNeue-Light" font-size="50" transform="matrix(1.00, 0.00, -0.00, -1.00, 233.8, 491.0)" xml:space="preserve">l</text><text fill="#000" font-family="HelveticaNeue-Light" font-size="50" transform="matrix(1.00, 0.00, -0.00, -1.00, 243.1, 491.0)" xml:space="preserve">l</text><text fill="#000" font-family="HelveticaNeue-Light" font-size="50" transform="matrix(1.00, 0.00, -0.00, -1.00, 266.2, 491.0)" xml:space="preserve">t</text><text fill="#000" font-family="HelveticaNeue-Light" font-size="50" transform="matrix(1.00, 0.00, -0.00, -1.00, 281.0, 491.0)" xml:space="preserve">i</text><text fill="#000" font-family="HelveticaNeue-Light" font-size="50" transform="matrix(1.00, 0.00, -0.00, -1.00, 290.2, 491.0)" xml:space="preserve">m</text><text fill="#000" font-family="HelveticaNeue-Light" font-size="50" transform="matrix(1.00, 0.00, -0.00, -1.00, 331.9, 491.0)" xml:space="preserve">e</text></g></svg>