<svg xmlns="http://www.w3.org/2000/svg" xmlns:xlink="http://www.w3.org/1999/xlink" stroke-miterlimit="4" clip-rule="evenodd" viewBox="0 0 1920 1080"><desc>SVG generated by Keynote</desc><g transform="matrix(1.00, 0.00, -0.00, -1.00, 0.0, 1080.0)"><path fill="#FEFFFE" d="M 0.0 1080.0 L 1920.0 1080.0 L 1920.0 0.0 L 0.0 0.0 Z M 0.0 1080.0"/><image width="960" height="174" transform="matrix(1.80, 0.00, -0.00, -1.80, 95.0, 697.0)" xlink:href="535F7B78CC1E87503CBEC6DAF35E75D9.png"/><text fill="#000" font-family="HelveticaNeue-Light" font-size="50" transform="matrix(1.00, 0.00, -0.00, -1.00, 752.0, 283.0)" xml:space="preserve">(</text><text fill="#000" font-family="HelveticaNeue-Light" font-size="50" transform="matrix(1.00, 0.00, -0.00, -1.00, 764.0, 283.0)" xml:space="preserve">S</text><text fill="#000" font-family="HelveticaNeue-Light" font-size="50" transform="matrix(1.00, 0.00, -0.00, -1.00, 795.5, 283.0)" xml:space="preserve">c</text><text fill="#000" font-family="HelveticaNeue-Light" font-size="50" transform="matrix(1.00, 0.00, -0.00, -1.00, 821.5, 283.0)" xml:space="preserve">r</text><text fill="#000" font-family="HelveticaNeue-Light" font-size="50" transform="matrix(1.00, 0.00, -0.00, -1.00, 836.4, 283.0)" xml:space="preserve">e</text><text fill="#000" font-family="HelveticaNeue-Light" font-size="50" transform="matrix(1.00, 0.00, -0.00, -1.00, 862.3, 283.0)" xml:space="preserve">w</text><text fill="#000" font-family="HelveticaNeue-Light" font-size="50" transform="matrix(1.00, 0.00, -0.00, -1.00, 899.4, 283.0)" xml:space="preserve">t</text><text fill="#000" font-family="HelveticaNeue-Light" font-size="50" transform="matrix(1.00, 0.00, -0.00, -1.00, 914.1, 283.0)" xml:space="preserve">a</text><text fill="#000" font-family="HelveticaNeue-Light" font-size="50" transform="matrix(1.00, 0.00, -0.00, -1.00, 940.1, 283.0)" xml:space="preserve">p</text><text fill="#000" font-family="HelveticaNeue-Light" font-size="50" transform="matrix(1.00, 0.00, -0.00, -1.00, 968.8, 283.0)" xml:space="preserve">e</text><text fill="#000" font-family="HelveticaNeue-Light" font-size="50" transform="matrix(1.00, 0.00, -0.00, -1.00, 1008.6, 283.0)" xml:space="preserve">L</text><text fill="#000" font-family="HelveticaNeue-Light" font-size="50" transform="matrix(1.00, 0.00, -0.00, -1.00, 1035.5, 283.0)" xml:space="preserve">e</text><text fill="#000" font-family="HelveticaNeue-Light" font-size="50" transform="matrix(1.00, 0.00, -0.00, -1.00, 1061.5, 283.0)" xml:space="preserve">t</text><text fill="#000" font-family="HelveticaNeue-Light" font-size="50" transform="matrix(1.00, 0.00, -0.00, -1.00, 1076.2, 283.0)" xml:space="preserve">t</text><text fill="#000" font-family="HelveticaNeue-Light" font-size="50" transform="matrix(1.00, 0.00, -0.00, -1.00, 1091.0, 283.0)" xml:space="preserve">e</text><text fill="#000" font-family="HelveticaNeue-Light" font-size="50" transform="matrix(1.00, 0.00, -0.00, -1.00, 1117.0, 283.0)" xml:space="preserve">r</text><text fill="#000" font-family="HelveticaNeue-Light" font-size="50" transform="matrix(1.00, 0.00, -0.00, -1.00, 1132.8, 283.0)" xml:space="preserve">s</text><text fill="#000" font-family="HelveticaNeue-Light" font-size="50" transform="matrix(1.00, 0.00, -0.00, -1.00, 1156.8, 283.0)" xml:space="preserve">)</text><text fill="#000" font-family="HelveticaNeue-Light" font-size="100" transform="matrix(1.00, 0.00, -0.00, -1.00, 778.0, 832.0)" xml:space="preserve">K</text><text fill="#000" font-family="HelveticaNeue-Light" font-size="100" transform="matrix(1.00, 0.00, -0.00, -1.00, 842.8, 832.0)" xml:space="preserve">i</text><text fill="#000" font-family="HelveticaNeue-Light" font-size="100" transform="matrix(1.00, 0.00, -0.00, -1.00, 861.3, 832.0)" xml:space="preserve">l</text><text fill="#000" font-family="HelveticaNeue-Light" font-size="100" transform="matrix(1.00, 0.00, -0.00, -1.00, 879.8, 832.0)" xml:space="preserve">l</text><text fill="#000" font-family="HelveticaNeue-Light" font-size="100" transform="matrix(1.00, 0.00, -0.00, -1.00, 926.1, 832.0)" xml:space="preserve">p</text><text fill="#000" font-family="HelveticaNeue-Light" font-size="100" transform="matrix(1.00, 0.00, -0.00, -1.00, 983.5, 832.0)" xml:space="preserve">r</text><text fill="#000" font-family="HelveticaNeue-Light" font-size="100" transform="matrix(1.00, 0.00, -0.00, -1.00, 1015.0, 832.0)" xml:space="preserve">i</text><text fill="#000" font-family="HelveticaNeue-Light" font-size="100" transform="matrix(1.00, 0.00, -0.00, -1.00, 1033.5, 832.0)" xml:space="preserve">d</text><text fill="#000" font-family="HelveticaNeue-Light" font-size="100" transform="matrix(1.00, 0.00, -0.00, -1.00, 1090.9, 832.0)" xml:space="preserve">e</text></g></svg>