<svg xmlns="http://www.w3.org/2000/svg" xmlns:xlink="http://www.w3.org/1999/xlink" stroke-miterlimit="4" clip-rule="evenodd" viewBox="0 0 1920 1080"><desc>SVG generated by Keynote</desc><g transform="matrix(1.00, 0.00, -0.00, -1.00, 0.0, 1080.0)"><path fill="#FEFFFE" d="M 0.0 1080.0 L 1920.0 1080.0 L 1920.0 0.0 L 0.0 0.0 Z M 0.0 1080.0"/><image width="960" height="292" transform="matrix(1.90, 0.00, -0.00, -1.91, 47.0, 798.0)" xlink:href="../../1B36543A-FBB2-4D71-A378-6C4B7B9A58AD/assets/A40E90136F8C20A299A1C72D220215A8.png"/><text fill="#000" font-family="HelveticaNeue-Light" font-size="84" transform="matrix(1.00, 0.00, -0.00, -1.00, 603.0, 952.0)" xml:space="preserve">S</text><text fill="#000" font-family="HelveticaNeue-Light" font-size="84" transform="matrix(1.00, 0.00, -0.00, -1.00, 655.9, 952.0)" xml:space="preserve">l</text><text fill="#000" font-family="HelveticaNeue-Light" font-size="84" transform="matrix(1.00, 0.00, -0.00, -1.00, 671.5, 952.0)" xml:space="preserve">a</text><text fill="#000" font-family="HelveticaNeue-Light" font-size="84" transform="matrix(1.00, 0.00, -0.00, -1.00, 715.1, 952.0)" xml:space="preserve">c</text><text fill="#000" font-family="HelveticaNeue-Light" font-size="84" transform="matrix(1.00, 0.00, -0.00, -1.00, 758.7, 952.0)" xml:space="preserve">k</text><text fill="#000" font-family="HelveticaNeue-Light" font-size="84" transform="matrix(1.00, 0.00, -0.00, -1.00, 800.7, 952.0)" xml:space="preserve">/</text><text fill="#000" font-family="HelveticaNeue-Light" font-size="84" transform="matrix(1.00, 0.00, -0.00, -1.00, 828.6, 952.0)" xml:space="preserve">r</text><text fill="#000" font-family="HelveticaNeue-Light" font-size="84" transform="matrix(1.00, 0.00, -0.00, -1.00, 853.6, 952.0)" xml:space="preserve">e</text><text fill="#000" font-family="HelveticaNeue-Light" font-size="84" transform="matrix(1.00, 0.00, -0.00, -1.00, 897.2, 952.0)" xml:space="preserve">a</text><text fill="#000" font-family="HelveticaNeue-Light" font-size="84" transform="matrix(1.00, 0.00, -0.00, -1.00, 940.8, 952.0)" xml:space="preserve">l</text><text fill="#000" font-family="HelveticaNeue-Light" font-size="84" transform="matrix(1.00, 0.00, -0.00, -1.00, 956.3, 952.0)" xml:space="preserve">-</text><text fill="#000" font-family="HelveticaNeue-Light" font-size="84" transform="matrix(1.00, 0.00, -0.00, -1.00, 987.4, 952.0)" xml:space="preserve">t</text><text fill="#000" font-family="HelveticaNeue-Light" font-size="84" transform="matrix(1.00, 0.00, -0.00, -1.00, 1012.2, 952.0)" xml:space="preserve">i</text><text fill="#000" font-family="HelveticaNeue-Light" font-size="84" transform="matrix(1.00, 0.00, -0.00, -1.00, 1027.8, 952.0)" xml:space="preserve">m</text><text fill="#000" font-family="HelveticaNeue-Light" font-size="84" transform="matrix(1.00, 0.00, -0.00, -1.00, 1097.8, 952.0)" xml:space="preserve">e</text><text fill="#000" font-family="HelveticaNeue-Light" font-size="84" transform="matrix(1.00, 0.00, -0.00, -1.00, 1164.7, 952.0)" xml:space="preserve">h</text><text fill="#000" font-family="HelveticaNeue-Light" font-size="84" transform="matrix(1.00, 0.00, -0.00, -1.00, 1209.8, 952.0)" xml:space="preserve">e</text><text fill="#000" font-family="HelveticaNeue-Light" font-size="84" transform="matrix(1.00, 0.00, -0.00, -1.00, 1253.4, 952.0)" xml:space="preserve">l</text><text fill="#000" font-family="HelveticaNeue-Light" font-size="84" transform="matrix(1.00, 0.00, -0.00, -1.00, 1269.0, 952.0)" xml:space="preserve">p</text></g></svg>