<svg xmlns="http://www.w3.org/2000/svg" xmlns:xlink="http://www.w3.org/1999/xlink" stroke-miterlimit="4" clip-rule="evenodd" viewBox="0 0 1920 1080"><desc>SVG generated by Keynote</desc><g transform="matrix(1.00, 0.00, -0.00, -1.00, 0.0, 1080.0)"><path fill="#FEFFFE" d="M 0.0 1080.0 L 1920.0 1080.0 L 1920.0 0.0 L 0.0 0.0 Z M 0.0 1080.0"/><image width="754" height="540" transform="matrix(1.52, 0.00, -0.00, -1.52, 388.0, 873.0)" xlink:href="../../773E7443-4BC2-4BA5-808E-0DE473C56C56/assets/EDAE7FDF4D8679AEBEF726D215E1BEDD.png"/><text fill="#000" font-family="HelveticaNeue-Light" font-size="100" transform="matrix(1.00, 0.00, -0.00, -1.00, 625.0, 946.0)" xml:space="preserve">A</text><text fill="#000" font-family="HelveticaNeue-Light" font-size="100" transform="matrix(1.00, 0.00, -0.00, -1.00, 688.0, 946.0)" xml:space="preserve">l</text><text fill="#000" font-family="HelveticaNeue-Light" font-size="100" transform="matrix(1.00, 0.00, -0.00, -1.00, 706.5, 946.0)" xml:space="preserve">w</text><text fill="#000" font-family="HelveticaNeue-Light" font-size="100" transform="matrix(1.00, 0.00, -0.00, -1.00, 780.6, 946.0)" xml:space="preserve">a</text><text fill="#000" font-family="HelveticaNeue-Light" font-size="100" transform="matrix(1.00, 0.00, -0.00, -1.00, 832.5, 946.0)" xml:space="preserve">y</text><text fill="#000" font-family="HelveticaNeue-Light" font-size="100" transform="matrix(1.00, 0.00, -0.00, -1.00, 878.8, 946.0)" xml:space="preserve">s</text><text fill="#000" font-family="HelveticaNeue-Light" font-size="100" transform="matrix(1.00, 0.00, -0.00, -1.00, 954.7, 946.0)" xml:space="preserve">o</text><text fill="#000" font-family="HelveticaNeue-Light" font-size="100" transform="matrix(1.00, 0.00, -0.00, -1.00, 1010.3, 946.0)" xml:space="preserve">n</text><text fill="#000" font-family="HelveticaNeue-Light" font-size="100" transform="matrix(1.00, 0.00, -0.00, -1.00, 1064.0, 946.0)" xml:space="preserve">-</text><text fill="#000" font-family="HelveticaNeue-Light" font-size="100" transform="matrix(1.00, 0.00, -0.00, -1.00, 1101.0, 946.0)" xml:space="preserve">c</text><text fill="#000" font-family="HelveticaNeue-Light" font-size="100" transform="matrix(1.00, 0.00, -0.00, -1.00, 1152.9, 946.0)" xml:space="preserve">a</text><text fill="#000" font-family="HelveticaNeue-Light" font-size="100" transform="matrix(1.00, 0.00, -0.00, -1.00, 1204.8, 946.0)" xml:space="preserve">l</text><text fill="#000" font-family="HelveticaNeue-Light" font-size="100" transform="matrix(1.00, 0.00, -0.00, -1.00, 1223.3, 946.0)" xml:space="preserve">l</text><text fill="#000" font-family="HelveticaNeue-Light" font-size="100" transform="matrix(1.00, 0.00, -0.00, -1.00, 1241.8, 946.0)" xml:space="preserve">?</text></g></svg>