<svg xmlns="http://www.w3.org/2000/svg" xmlns:xlink="http://www.w3.org/1999/xlink" stroke-miterlimit="4" clip-rule="evenodd" viewBox="0 0 1920 1080"><desc>SVG generated by Keynote</desc><g transform="matrix(1.00, 0.00, -0.00, -1.00, 0.0, 1080.0)"><path fill="#FEFFFE" d="M 0.0 1080.0 L 1920.0 1080.0 L 1920.0 0.0 L 0.0 0.0 Z M 0.0 1080.0"/><image width="752" height="540" transform="matrix(1.84, 0.00, -0.00, -1.84, 515.0, 1016.0)" xlink:href="765829E2C7C54AC79EFD52B1A3918AAA.png"/><text fill="#000" font-family="HelveticaNeue-Light" font-size="80" transform="matrix(1.00, 0.00, -0.00, -1.00, 154.0, 606.0)" xml:space="preserve">M</text><text fill="#000" font-family="HelveticaNeue-Light" font-size="80" transform="matrix(1.00, 0.00, -0.00, -1.00, 219.7, 606.0)" xml:space="preserve">a</text><text fill="#000" font-family="HelveticaNeue-Light" font-size="80" transform="matrix(1.00, 0.00, -0.00, -1.00, 261.2, 606.0)" xml:space="preserve">i</text><text fill="#000" font-family="HelveticaNeue-Light" font-size="80" transform="matrix(1.00, 0.00, -0.00, -1.00, 276.0, 606.0)" xml:space="preserve">n</text><text fill="#000" font-family="HelveticaNeue-Light" font-size="80" transform="matrix(1.00, 0.00, -0.00, -1.00, 319.0, 606.0)" xml:space="preserve">t</text><text fill="#000" font-family="HelveticaNeue-Light" font-size="80" transform="matrix(1.00, 0.00, -0.00, -1.00, 342.6, 606.0)" xml:space="preserve">a</text><text fill="#000" font-family="HelveticaNeue-Light" font-size="80" transform="matrix(1.00, 0.00, -0.00, -1.00, 384.2, 606.0)" xml:space="preserve">i</text><text fill="#000" font-family="HelveticaNeue-Light" font-size="80" transform="matrix(1.00, 0.00, -0.00, -1.00, 399.0, 606.0)" xml:space="preserve">n</text><text fill="#000" font-family="HelveticaNeue-Light" font-size="80" transform="matrix(1.00, 0.00, -0.00, -1.00, 441.9, 606.0)" xml:space="preserve">e</text><text fill="#000" font-family="HelveticaNeue-Light" font-size="80" transform="matrix(1.00, 0.00, -0.00, -1.00, 483.4, 606.0)" xml:space="preserve">r</text><text fill="#000" font-family="HelveticaNeue-Light" font-size="80" transform="matrix(1.00, 0.00, -0.00, -1.00, 194.0, 510.0)" xml:space="preserve">h</text><text fill="#000" font-family="HelveticaNeue-Light" font-size="80" transform="matrix(1.00, 0.00, -0.00, -1.00, 237.0, 510.0)" xml:space="preserve">a</text><text fill="#000" font-family="HelveticaNeue-Light" font-size="80" transform="matrix(1.00, 0.00, -0.00, -1.00, 278.5, 510.0)" xml:space="preserve">n</text><text fill="#000" font-family="HelveticaNeue-Light" font-size="80" transform="matrix(1.00, 0.00, -0.00, -1.00, 321.4, 510.0)" xml:space="preserve">d</text><text fill="#000" font-family="HelveticaNeue-Light" font-size="80" transform="matrix(1.00, 0.00, -0.00, -1.00, 367.4, 510.0)" xml:space="preserve">l</text><text fill="#000" font-family="HelveticaNeue-Light" font-size="80" transform="matrix(1.00, 0.00, -0.00, -1.00, 382.2, 510.0)" xml:space="preserve">e</text><text fill="#000" font-family="HelveticaNeue-Light" font-size="80" transform="matrix(1.00, 0.00, -0.00, -1.00, 423.7, 510.0)" xml:space="preserve">d</text><text fill="#000" font-family="HelveticaNeue-Light" font-size="80" transform="matrix(1.00, 0.00, -0.00, -1.00, 194.2, 414.0)" xml:space="preserve">i</text><text fill="#000" font-family="HelveticaNeue-Light" font-size="80" transform="matrix(1.00, 0.00, -0.00, -1.00, 209.0, 414.0)" xml:space="preserve">t</text><text fill="#000" font-family="HelveticaNeue-Light" font-size="80" transform="matrix(1.00, 0.00, -0.00, -1.00, 255.0, 414.0)" xml:space="preserve">s</text><text fill="#000" font-family="HelveticaNeue-Light" font-size="80" transform="matrix(1.00, 0.00, -0.00, -1.00, 293.4, 414.0)" xml:space="preserve">o</text><text fill="#000" font-family="HelveticaNeue-Light" font-size="80" transform="matrix(1.00, 0.00, -0.00, -1.00, 360.2, 414.0)" xml:space="preserve">w</text><text fill="#000" font-family="HelveticaNeue-Light" font-size="80" transform="matrix(1.00, 0.00, -0.00, -1.00, 419.4, 414.0)" xml:space="preserve">e</text><text fill="#000" font-family="HelveticaNeue-Light" font-size="80" transform="matrix(1.00, 0.00, -0.00, -1.00, 461.0, 414.0)" xml:space="preserve">l</text><text fill="#000" font-family="HelveticaNeue-Light" font-size="80" transform="matrix(1.00, 0.00, -0.00, -1.00, 475.8, 414.0)" xml:space="preserve">l</text></g></svg>