<svg xmlns="http://www.w3.org/2000/svg" xmlns:xlink="http://www.w3.org/1999/xlink" stroke-miterlimit="4" clip-rule="evenodd" viewBox="0 0 1920 1080"><desc>SVG generated by Keynote</desc><g><path fill="#FEFFFE" d="M 0.0 1080.0 L 1920.0 1080.0 L 1920.0 0.0 L 0.0 0.0 Z M 0.0 1080.0" transform="matrix(1.00, 0.00, -0.00, -1.00, 0.0, 1080.0)"/><text fill="#000" font-family="HelveticaNeue-Light" font-size="70" transform="matrix(1.00, 0.00, -0.00, -1.00, 0.0, 1080.0) matrix(1.00, 0.00, -0.00, -1.00, 350.0, 641.0)" xml:space="preserve">W</text><text fill="#000" font-family="HelveticaNeue-Light" font-size="70" transform="matrix(1.00, 0.00, -0.00, -1.00, 0.0, 1080.0) matrix(1.00, 0.00, -0.00, -1.00, 413.5, 641.0)" xml:space="preserve">h</text><text fill="#000" font-family="HelveticaNeue-Light" font-size="70" transform="matrix(1.00, 0.00, -0.00, -1.00, 0.0, 1080.0) matrix(1.00, 0.00, -0.00, -1.00, 451.1, 641.0)" xml:space="preserve">y</text><text fill="#000" font-family="HelveticaNeue-Light" font-size="70" transform="matrix(1.00, 0.00, -0.00, -1.00, 0.0, 1080.0) matrix(1.00, 0.00, -0.00, -1.00, 503.0, 641.0)" xml:space="preserve">d</text><text fill="#000" font-family="HelveticaNeue-Light" font-size="70" transform="matrix(1.00, 0.00, -0.00, -1.00, 0.0, 1080.0) matrix(1.00, 0.00, -0.00, -1.00, 543.1, 641.0)" xml:space="preserve">o</text><text fill="#000" font-family="HelveticaNeue-Light" font-size="70" transform="matrix(1.00, 0.00, -0.00, -1.00, 0.0, 1080.0) matrix(1.00, 0.00, -0.00, -1.00, 601.5, 641.0)" xml:space="preserve">y</text><text fill="#000" font-family="HelveticaNeue-Light" font-size="70" transform="matrix(1.00, 0.00, -0.00, -1.00, 0.0, 1080.0) matrix(1.00, 0.00, -0.00, -1.00, 633.9, 641.0)" xml:space="preserve">o</text><text fill="#000" font-family="HelveticaNeue-Light" font-size="70" transform="matrix(1.00, 0.00, -0.00, -1.00, 0.0, 1080.0) matrix(1.00, 0.00, -0.00, -1.00, 672.8, 641.0)" xml:space="preserve">u</text><text fill="#000" font-family="HelveticaNeue-Light" font-size="70" transform="matrix(1.00, 0.00, -0.00, -1.00, 0.0, 1080.0) matrix(1.00, 0.00, -0.00, -1.00, 729.9, 641.0)" xml:space="preserve">s</text><text fill="#000" font-family="HelveticaNeue-Light" font-size="70" transform="matrix(1.00, 0.00, -0.00, -1.00, 0.0, 1080.0) matrix(1.00, 0.00, -0.00, -1.00, 763.6, 641.0)" xml:space="preserve">e</text><text fill="#000" font-family="HelveticaNeue-Light" font-size="70" transform="matrix(1.00, 0.00, -0.00, -1.00, 0.0, 1080.0) matrix(1.00, 0.00, -0.00, -1.00, 799.9, 641.0)" xml:space="preserve">e</text><text fill="#000" font-family="HelveticaNeue-Light" font-size="70" transform="matrix(1.00, 0.00, -0.00, -1.00, 0.0, 1080.0) matrix(1.00, 0.00, -0.00, -1.00, 855.7, 641.0)" xml:space="preserve">t</text><text fill="#000" font-family="HelveticaNeue-Light" font-size="70" transform="matrix(1.00, 0.00, -0.00, -1.00, 0.0, 1080.0) matrix(1.00, 0.00, -0.00, -1.00, 876.4, 641.0)" xml:space="preserve">h</text><text fill="#000" font-family="HelveticaNeue-Light" font-size="70" transform="matrix(1.00, 0.00, -0.00, -1.00, 0.0, 1080.0) matrix(1.00, 0.00, -0.00, -1.00, 914.0, 641.0)" xml:space="preserve">e</text><text fill="#000" font-family="HelveticaNeue-LightItalic" font-size="70" font-style="italic" transform="matrix(1.00, 0.00, -0.00, -1.00, 0.0, 1080.0) matrix(1.00, 0.00, -0.00, -1.00, 969.8, 641.0)" xml:space="preserve">s</text><text fill="#000" font-family="HelveticaNeue-LightItalic" font-size="70" font-style="italic" transform="matrix(1.00, 0.00, -0.00, -1.00, 0.0, 1080.0) matrix(1.00, 0.00, -0.00, -1.00, 1003.4, 641.0)" xml:space="preserve">p</text><text fill="#000" font-family="HelveticaNeue-LightItalic" font-size="70" font-style="italic" transform="matrix(1.00, 0.00, -0.00, -1.00, 0.0, 1080.0) matrix(1.00, 0.00, -0.00, -1.00, 1043.6, 641.0)" xml:space="preserve">e</text><text fill="#000" font-family="HelveticaNeue-LightItalic" font-size="70" font-style="italic" transform="matrix(1.00, 0.00, -0.00, -1.00, 0.0, 1080.0) matrix(1.00, 0.00, -0.00, -1.00, 1080.0, 641.0)" xml:space="preserve">c</text><text fill="#000" font-family="HelveticaNeue-LightItalic" font-size="70" font-style="italic" transform="matrix(1.00, 0.00, -0.00, -1.00, 0.0, 1080.0) matrix(1.00, 0.00, -0.00, -1.00, 1116.3, 641.0)" xml:space="preserve">k</text><text fill="#000" font-family="HelveticaNeue-Light" font-size="70" transform="matrix(1.00, 0.00, -0.00, -1.00, 0.0, 1080.0) matrix(1.00, 0.00, -0.00, -1.00, 1168.2, 641.0)" xml:space="preserve">t</text><text fill="#000" font-family="HelveticaNeue-Light" font-size="70" transform="matrix(1.00, 0.00, -0.00, -1.00, 0.0, 1080.0) matrix(1.00, 0.00, -0.00, -1.00, 1188.9, 641.0)" xml:space="preserve">h</text><text fill="#000" font-family="HelveticaNeue-Light" font-size="70" transform="matrix(1.00, 0.00, -0.00, -1.00, 0.0, 1080.0) matrix(1.00, 0.00, -0.00, -1.00, 1226.5, 641.0)" xml:space="preserve">a</text><text fill="#000" font-family="HelveticaNeue-Light" font-size="70" transform="matrix(1.00, 0.00, -0.00, -1.00, 0.0, 1080.0) matrix(1.00, 0.00, -0.00, -1.00, 1262.8, 641.0)" xml:space="preserve">t</text><text fill="#000" font-family="HelveticaNeue-Light" font-size="70" transform="matrix(1.00, 0.00, -0.00, -1.00, 0.0, 1080.0) matrix(1.00, 0.00, -0.00, -1.00, 1303.0, 641.0)" xml:space="preserve">i</text><text fill="#000" font-family="HelveticaNeue-Light" font-size="70" transform="matrix(1.00, 0.00, -0.00, -1.00, 0.0, 1080.0) matrix(1.00, 0.00, -0.00, -1.00, 1315.9, 641.0)" xml:space="preserve">s</text><text fill="#000" font-family="HelveticaNeue-Light" font-size="70" transform="matrix(1.00, 0.00, -0.00, -1.00, 0.0, 1080.0) matrix(1.00, 0.00, -0.00, -1.00, 1369.1, 641.0)" xml:space="preserve">i</text><text fill="#000" font-family="HelveticaNeue-Light" font-size="70" transform="matrix(1.00, 0.00, -0.00, -1.00, 0.0, 1080.0) matrix(1.00, 0.00, -0.00, -1.00, 1382.0, 641.0)" xml:space="preserve">n</text><text fill="#000" font-family="HelveticaNeue-Light" font-size="70" transform="matrix(1.00, 0.00, -0.00, -1.00, 0.0, 1080.0) matrix(1.00, 0.00, -0.00, -1.00, 1439.1, 641.0)" xml:space="preserve">y</text><text fill="#000" font-family="HelveticaNeue-Light" font-size="70" transform="matrix(1.00, 0.00, -0.00, -1.00, 0.0, 1080.0) matrix(1.00, 0.00, -0.00, -1.00, 1471.5, 641.0)" xml:space="preserve">o</text><text fill="#000" font-family="HelveticaNeue-Light" font-size="70" transform="matrix(1.00, 0.00, -0.00, -1.00, 0.0, 1080.0) matrix(1.00, 0.00, -0.00, -1.00, 1510.4, 641.0)" xml:space="preserve">u</text><text fill="#000" font-family="HelveticaNeue-Light" font-size="70" transform="matrix(1.00, 0.00, -0.00, -1.00, 0.0, 1080.0) matrix(1.00, 0.00, -0.00, -1.00, 1548.0, 641.0)" xml:space="preserve">r</text><text fill="#000" font-family="HelveticaNeue-Light" font-size="70" transform="matrix(1.00, 0.00, -0.00, -1.00, 0.0, 1080.0) matrix(1.00, 0.00, -0.00, -1.00, 371.0, 556.0)" xml:space="preserve">b</text><text fill="#000" font-family="HelveticaNeue-Light" font-size="70" transform="matrix(1.00, 0.00, -0.00, -1.00, 0.0, 1080.0) matrix(1.00, 0.00, -0.00, -1.00, 411.2, 556.0)" xml:space="preserve">r</text><text fill="#000" font-family="HelveticaNeue-Light" font-size="70" transform="matrix(1.00, 0.00, -0.00, -1.00, 0.0, 1080.0) matrix(1.00, 0.00, -0.00, -1.00, 432.0, 556.0)" xml:space="preserve">o</text><text fill="#000" font-family="HelveticaNeue-Light" font-size="70" transform="matrix(1.00, 0.00, -0.00, -1.00, 0.0, 1080.0) matrix(1.00, 0.00, -0.00, -1.00, 470.9, 556.0)" xml:space="preserve">t</text><text fill="#000" font-family="HelveticaNeue-Light" font-size="70" transform="matrix(1.00, 0.00, -0.00, -1.00, 0.0, 1080.0) matrix(1.00, 0.00, -0.00, -1.00, 491.6, 556.0)" xml:space="preserve">h</text><text fill="#000" font-family="HelveticaNeue-Light" font-size="70" transform="matrix(1.00, 0.00, -0.00, -1.00, 0.0, 1080.0) matrix(1.00, 0.00, -0.00, -1.00, 529.2, 556.0)" xml:space="preserve">e</text><text fill="#000" font-family="HelveticaNeue-Light" font-size="70" transform="matrix(1.00, 0.00, -0.00, -1.00, 0.0, 1080.0) matrix(1.00, 0.00, -0.00, -1.00, 565.5, 556.0)" xml:space="preserve">r</text><text fill="#000" font-family="HelveticaNeue-Light" font-size="70" transform="matrix(1.00, 0.00, -0.00, -1.00, 0.0, 1080.0) matrix(1.00, 0.00, -0.00, -1.00, 587.6, 556.0)" xml:space="preserve">’</text><text fill="#000" font-family="HelveticaNeue-Light" font-size="70" transform="matrix(1.00, 0.00, -0.00, -1.00, 0.0, 1080.0) matrix(1.00, 0.00, -0.00, -1.00, 599.3, 556.0)" xml:space="preserve">s</text><text fill="#000" font-family="HelveticaNeue-Light" font-size="70" transform="matrix(1.00, 0.00, -0.00, -1.00, 0.0, 1080.0) matrix(1.00, 0.00, -0.00, -1.00, 652.4, 556.0)" xml:space="preserve">e</text><text fill="#000" font-family="HelveticaNeue-Light" font-size="70" transform="matrix(1.00, 0.00, -0.00, -1.00, 0.0, 1080.0) matrix(1.00, 0.00, -0.00, -1.00, 688.7, 556.0)" xml:space="preserve">y</text><text fill="#000" font-family="HelveticaNeue-Light" font-size="70" transform="matrix(1.00, 0.00, -0.00, -1.00, 0.0, 1080.0) matrix(1.00, 0.00, -0.00, -1.00, 721.1, 556.0)" xml:space="preserve">e</text><text fill="#000" font-family="HelveticaNeue-Light" font-size="70" transform="matrix(1.00, 0.00, -0.00, -1.00, 0.0, 1080.0) matrix(1.00, 0.00, -0.00, -1.00, 757.5, 556.0)" xml:space="preserve">,</text><text fill="#000" font-family="HelveticaNeue-Light" font-size="70" transform="matrix(1.00, 0.00, -0.00, -1.00, 0.0, 1080.0) matrix(1.00, 0.00, -0.00, -1.00, 796.4, 556.0)" xml:space="preserve">b</text><text fill="#000" font-family="HelveticaNeue-Light" font-size="70" transform="matrix(1.00, 0.00, -0.00, -1.00, 0.0, 1080.0) matrix(1.00, 0.00, -0.00, -1.00, 836.6, 556.0)" xml:space="preserve">u</text><text fill="#000" font-family="HelveticaNeue-Light" font-size="70" transform="matrix(1.00, 0.00, -0.00, -1.00, 0.0, 1080.0) matrix(1.00, 0.00, -0.00, -1.00, 874.2, 556.0)" xml:space="preserve">t</text><text fill="#000" font-family="HelveticaNeue-Light" font-size="70" transform="matrix(1.00, 0.00, -0.00, -1.00, 0.0, 1080.0) matrix(1.00, 0.00, -0.00, -1.00, 914.3, 556.0)" xml:space="preserve">d</text><text fill="#000" font-family="HelveticaNeue-Light" font-size="70" transform="matrix(1.00, 0.00, -0.00, -1.00, 0.0, 1080.0) matrix(1.00, 0.00, -0.00, -1.00, 954.5, 556.0)" xml:space="preserve">o</text><text fill="#000" font-family="HelveticaNeue-Light" font-size="70" transform="matrix(1.00, 0.00, -0.00, -1.00, 0.0, 1080.0) matrix(1.00, 0.00, -0.00, -1.00, 1012.9, 556.0)" xml:space="preserve">n</text><text fill="#000" font-family="HelveticaNeue-Light" font-size="70" transform="matrix(1.00, 0.00, -0.00, -1.00, 0.0, 1080.0) matrix(1.00, 0.00, -0.00, -1.00, 1050.5, 556.0)" xml:space="preserve">o</text><text fill="#000" font-family="HelveticaNeue-Light" font-size="70" transform="matrix(1.00, 0.00, -0.00, -1.00, 0.0, 1080.0) matrix(1.00, 0.00, -0.00, -1.00, 1089.4, 556.0)" xml:space="preserve">t</text><text fill="#000" font-family="HelveticaNeue-Light" font-size="70" transform="matrix(1.00, 0.00, -0.00, -1.00, 0.0, 1080.0) matrix(1.00, 0.00, -0.00, -1.00, 1129.6, 556.0)" xml:space="preserve">n</text><text fill="#000" font-family="HelveticaNeue-Light" font-size="70" transform="matrix(1.00, 0.00, -0.00, -1.00, 0.0, 1080.0) matrix(1.00, 0.00, -0.00, -1.00, 1167.2, 556.0)" xml:space="preserve">o</text><text fill="#000" font-family="HelveticaNeue-Light" font-size="70" transform="matrix(1.00, 0.00, -0.00, -1.00, 0.0, 1080.0) matrix(1.00, 0.00, -0.00, -1.00, 1206.1, 556.0)" xml:space="preserve">t</text><text fill="#000" font-family="HelveticaNeue-Light" font-size="70" transform="matrix(1.00, 0.00, -0.00, -1.00, 0.0, 1080.0) matrix(1.00, 0.00, -0.00, -1.00, 1226.8, 556.0)" xml:space="preserve">i</text><text fill="#000" font-family="HelveticaNeue-Light" font-size="70" transform="matrix(1.00, 0.00, -0.00, -1.00, 0.0, 1080.0) matrix(1.00, 0.00, -0.00, -1.00, 1239.8, 556.0)" xml:space="preserve">c</text><text fill="#000" font-family="HelveticaNeue-Light" font-size="70" transform="matrix(1.00, 0.00, -0.00, -1.00, 0.0, 1080.0) matrix(1.00, 0.00, -0.00, -1.00, 1276.1, 556.0)" xml:space="preserve">e</text><text fill="#000" font-family="HelveticaNeue-Light" font-size="70" transform="matrix(1.00, 0.00, -0.00, -1.00, 0.0, 1080.0) matrix(1.00, 0.00, -0.00, -1.00, 1331.9, 556.0)" xml:space="preserve">t</text><text fill="#000" font-family="HelveticaNeue-Light" font-size="70" transform="matrix(1.00, 0.00, -0.00, -1.00, 0.0, 1080.0) matrix(1.00, 0.00, -0.00, -1.00, 1352.6, 556.0)" xml:space="preserve">h</text><text fill="#000" font-family="HelveticaNeue-Light" font-size="70" transform="matrix(1.00, 0.00, -0.00, -1.00, 0.0, 1080.0) matrix(1.00, 0.00, -0.00, -1.00, 1390.2, 556.0)" xml:space="preserve">e</text><text fill="#000" font-family="HelveticaNeue-Bold" font-size="70" font-weight="bold" transform="matrix(1.00, 0.00, -0.00, -1.00, 0.0, 1080.0) matrix(1.00, 0.00, -0.00, -1.00, 1446.0, 556.0)" xml:space="preserve">l</text><text fill="#000" font-family="HelveticaNeue-Bold" font-size="70" font-weight="bold" transform="matrix(1.00, 0.00, -0.00, -1.00, 0.0, 1080.0) matrix(1.00, 0.00, -0.00, -1.00, 1464.0, 556.0)" xml:space="preserve">o</text><text fill="#000" font-family="HelveticaNeue-Bold" font-size="70" font-weight="bold" transform="matrix(1.00, 0.00, -0.00, -1.00, 0.0, 1080.0) matrix(1.00, 0.00, -0.00, -1.00, 1506.8, 556.0)" xml:space="preserve">g</text><text fill="#000" font-family="HelveticaNeue-Light" font-size="70" transform="matrix(1.00, 0.00, -0.00, -1.00, 0.0, 1080.0) matrix(1.00, 0.00, -0.00, -1.00, 623.0, 471.0)" xml:space="preserve">t</text><text fill="#000" font-family="HelveticaNeue-Light" font-size="70" transform="matrix(1.00, 0.00, -0.00, -1.00, 0.0, 1080.0) matrix(1.00, 0.00, -0.00, -1.00, 643.7, 471.0)" xml:space="preserve">h</text><text fill="#000" font-family="HelveticaNeue-Light" font-size="70" transform="matrix(1.00, 0.00, -0.00, -1.00, 0.0, 1080.0) matrix(1.00, 0.00, -0.00, -1.00, 681.3, 471.0)" xml:space="preserve">a</text><text fill="#000" font-family="HelveticaNeue-Light" font-size="70" transform="matrix(1.00, 0.00, -0.00, -1.00, 0.0, 1080.0) matrix(1.00, 0.00, -0.00, -1.00, 717.6, 471.0)" xml:space="preserve">t</text><text fill="#000" font-family="HelveticaNeue-Light" font-size="70" transform="matrix(1.00, 0.00, -0.00, -1.00, 0.0, 1080.0) matrix(1.00, 0.00, -0.00, -1.00, 757.8, 471.0)" xml:space="preserve">i</text><text fill="#000" font-family="HelveticaNeue-Light" font-size="70" transform="matrix(1.00, 0.00, -0.00, -1.00, 0.0, 1080.0) matrix(1.00, 0.00, -0.00, -1.00, 770.8, 471.0)" xml:space="preserve">s</text><text fill="#000" font-family="HelveticaNeue-Light" font-size="70" transform="matrix(1.00, 0.00, -0.00, -1.00, 0.0, 1080.0) matrix(1.00, 0.00, -0.00, -1.00, 823.9, 471.0)" xml:space="preserve">i</text><text fill="#000" font-family="HelveticaNeue-Light" font-size="70" transform="matrix(1.00, 0.00, -0.00, -1.00, 0.0, 1080.0) matrix(1.00, 0.00, -0.00, -1.00, 836.9, 471.0)" xml:space="preserve">n</text><text fill="#000" font-family="HelveticaNeue-Light" font-size="70" transform="matrix(1.00, 0.00, -0.00, -1.00, 0.0, 1080.0) matrix(1.00, 0.00, -0.00, -1.00, 893.9, 471.0)" xml:space="preserve">y</text><text fill="#000" font-family="HelveticaNeue-Light" font-size="70" transform="matrix(1.00, 0.00, -0.00, -1.00, 0.0, 1080.0) matrix(1.00, 0.00, -0.00, -1.00, 926.3, 471.0)" xml:space="preserve">o</text><text fill="#000" font-family="HelveticaNeue-Light" font-size="70" transform="matrix(1.00, 0.00, -0.00, -1.00, 0.0, 1080.0) matrix(1.00, 0.00, -0.00, -1.00, 965.2, 471.0)" xml:space="preserve">u</text><text fill="#000" font-family="HelveticaNeue-Light" font-size="70" transform="matrix(1.00, 0.00, -0.00, -1.00, 0.0, 1080.0) matrix(1.00, 0.00, -0.00, -1.00, 1002.8, 471.0)" xml:space="preserve">r</text><text fill="#000" font-family="HelveticaNeue-Light" font-size="70" transform="matrix(1.00, 0.00, -0.00, -1.00, 0.0, 1080.0) matrix(1.00, 0.00, -0.00, -1.00, 1044.3, 471.0)" xml:space="preserve">o</text><text fill="#000" font-family="HelveticaNeue-Light" font-size="70" transform="matrix(1.00, 0.00, -0.00, -1.00, 0.0, 1080.0) matrix(1.00, 0.00, -0.00, -1.00, 1083.2, 471.0)" xml:space="preserve">w</text><text fill="#000" font-family="HelveticaNeue-Light" font-size="70" transform="matrix(1.00, 0.00, -0.00, -1.00, 0.0, 1080.0) matrix(1.00, 0.00, -0.00, -1.00, 1135.1, 471.0)" xml:space="preserve">n</text><text fill="#000" font-family="HelveticaNeue-Light" font-size="70" transform="matrix(1.00, 0.00, -0.00, -1.00, 0.0, 1080.0) matrix(1.00, 0.00, -0.00, -1.00, 1192.2, 471.0)" xml:space="preserve">e</text><text fill="#000" font-family="HelveticaNeue-Light" font-size="70" transform="matrix(1.00, 0.00, -0.00, -1.00, 0.0, 1080.0) matrix(1.00, 0.00, -0.00, -1.00, 1228.5, 471.0)" xml:space="preserve">y</text><text fill="#000" font-family="HelveticaNeue-Light" font-size="70" transform="matrix(1.00, 0.00, -0.00, -1.00, 0.0, 1080.0) matrix(1.00, 0.00, -0.00, -1.00, 1260.9, 471.0)" xml:space="preserve">e</text><text fill="#000" font-family="HelveticaNeue-Light" font-size="70" transform="matrix(1.00, 0.00, -0.00, -1.00, 0.0, 1080.0) matrix(1.00, 0.00, -0.00, -1.00, 771.0, 386.0)" xml:space="preserve">M</text><text fill="#000" font-family="HelveticaNeue-Light" font-size="70" transform="matrix(1.00, 0.00, -0.00, -1.00, 0.0, 1080.0) matrix(1.00, 0.00, -0.00, -1.00, 828.5, 386.0)" xml:space="preserve">a</text><text fill="#000" font-family="HelveticaNeue-Light" font-size="70" transform="matrix(1.00, 0.00, -0.00, -1.00, 0.0, 1080.0) matrix(1.00, 0.00, -0.00, -1.00, 864.8, 386.0)" xml:space="preserve">t</text><text fill="#000" font-family="HelveticaNeue-Light" font-size="70" transform="matrix(1.00, 0.00, -0.00, -1.00, 0.0, 1080.0) matrix(1.00, 0.00, -0.00, -1.00, 885.5, 386.0)" xml:space="preserve">t</text><text fill="#000" font-family="HelveticaNeue-Light" font-size="70" transform="matrix(1.00, 0.00, -0.00, -1.00, 0.0, 1080.0) matrix(1.00, 0.00, -0.00, -1.00, 906.2, 386.0)" xml:space="preserve">h</text><text fill="#000" font-family="HelveticaNeue-Light" font-size="70" transform="matrix(1.00, 0.00, -0.00, -1.00, 0.0, 1080.0) matrix(1.00, 0.00, -0.00, -1.00, 943.8, 386.0)" xml:space="preserve">e</text><text fill="#000" font-family="HelveticaNeue-Light" font-size="70" transform="matrix(1.00, 0.00, -0.00, -1.00, 0.0, 1080.0) matrix(1.00, 0.00, -0.00, -1.00, 980.2, 386.0)" xml:space="preserve">w</text><text fill="#000" font-family="HelveticaNeue-Light" font-size="70" transform="matrix(1.00, 0.00, -0.00, -1.00, 0.0, 1080.0) matrix(1.00, 0.00, -0.00, -1.00, 1051.5, 386.0)" xml:space="preserve">7</text><text fill="#000" font-family="HelveticaNeue-Light" font-size="70" transform="matrix(1.00, 0.00, -0.00, -1.00, 0.0, 1080.0) matrix(1.00, 0.00, -0.00, -1.00, 1090.4, 386.0)" xml:space="preserve">:</text><text fill="#000" font-family="HelveticaNeue-Light" font-size="70" transform="matrix(1.00, 0.00, -0.00, -1.00, 0.0, 1080.0) matrix(1.00, 0.00, -0.00, -1.00, 1109.9, 386.0)" xml:space="preserve">3</text></g></svg>