<svg xmlns="http://www.w3.org/2000/svg" xmlns:xlink="http://www.w3.org/1999/xlink" stroke-miterlimit="4" clip-rule="evenodd" viewBox="0 0 1920 1080"><desc>SVG generated by Keynote</desc><g transform="matrix(1.00, 0.00, -0.00, -1.00, 0.0, 1080.0)"><path fill="#FEFFFE" d="M 0.0 1080.0 L 1920.0 1080.0 L 1920.0 0.0 L 0.0 0.0 Z M 0.0 1080.0"/><text fill="#000" font-family="HelveticaNeue-Light" font-size="100" transform="matrix(1.00, 0.00, -0.00, -1.00, 76.0, 502.0)" xml:space="preserve">G</text><text fill="#000" font-family="HelveticaNeue-Light" font-size="100" transform="matrix(1.00, 0.00, -0.00, -1.00, 150.1, 502.0)" xml:space="preserve">i</text><text fill="#000" font-family="HelveticaNeue-Light" font-size="100" transform="matrix(1.00, 0.00, -0.00, -1.00, 168.6, 502.0)" xml:space="preserve">t</text><text fill="#000" font-family="HelveticaNeue-Light" font-size="100" transform="matrix(1.00, 0.00, -0.00, -1.00, 198.2, 502.0)" xml:space="preserve">H</text><text fill="#000" font-family="HelveticaNeue-Light" font-size="100" transform="matrix(1.00, 0.00, -0.00, -1.00, 268.6, 502.0)" xml:space="preserve">u</text><text fill="#000" font-family="HelveticaNeue-Light" font-size="100" transform="matrix(1.00, 0.00, -0.00, -1.00, 322.3, 502.0)" xml:space="preserve">b</text><image width="930" height="540" transform="matrix(1.54, 0.00, -0.00, -1.54, 442.0, 957.0)" xlink:href="399A004E0E440276349A3101FCD8C96E.png"/></g></svg>