<svg xmlns="http://www.w3.org/2000/svg" xmlns:xlink="http://www.w3.org/1999/xlink" stroke-miterlimit="4" clip-rule="evenodd" viewBox="0 0 462 244"><desc>SVG generated by Keynote</desc><g><text fill="#000" font-family="HelveticaNeue" font-size="112" transform="matrix(1.00, 0.00, -0.00, -1.00, 0.0, 244.0) matrix(1.00, 0.00, -0.00, -1.00, 1.0, 161.0)" xml:space="preserve">E</text><text fill="#000" font-family="HelveticaNeue" font-size="112" transform="matrix(1.00, 0.00, -0.00, -1.00, 0.0, 244.0) matrix(1.00, 0.00, -0.00, -1.00, 69.4, 161.0)" xml:space="preserve">n</text><text fill="#000" font-family="HelveticaNeue" font-size="112" transform="matrix(1.00, 0.00, -0.00, -1.00, 0.0, 244.0) matrix(1.00, 0.00, -0.00, -1.00, 131.7, 161.0)" xml:space="preserve">d</text><text fill="#000" font-family="HelveticaNeue" font-size="112" transform="matrix(1.00, 0.00, -0.00, -1.00, 0.0, 244.0) matrix(1.00, 0.00, -0.00, -1.00, 229.3, 161.0)" xml:space="preserve">o</text><text fill="#000" font-family="HelveticaNeue" font-size="112" transform="matrix(1.00, 0.00, -0.00, -1.00, 0.0, 244.0) matrix(1.00, 0.00, -0.00, -1.00, 293.5, 161.0)" xml:space="preserve">f</text><text fill="#000" font-family="HelveticaNeue" font-size="112" transform="matrix(1.00, 0.00, -0.00, -1.00, 0.0, 244.0) matrix(1.00, 0.00, -0.00, -1.00, 1.0, 4.0)" xml:space="preserve">t</text><text fill="#000" font-family="HelveticaNeue" font-size="112" transform="matrix(1.00, 0.00, -0.00, -1.00, 0.0, 244.0) matrix(1.00, 0.00, -0.00, -1.00, 36.3, 4.0)" xml:space="preserve">h</text><text fill="#000" font-family="HelveticaNeue" font-size="112" transform="matrix(1.00, 0.00, -0.00, -1.00, 0.0, 244.0) matrix(1.00, 0.00, -0.00, -1.00, 98.6, 4.0)" xml:space="preserve">e</text><text fill="#000" font-family="HelveticaNeue" font-size="112" transform="matrix(1.00, 0.00, -0.00, -1.00, 0.0, 244.0) matrix(1.00, 0.00, -0.00, -1.00, 189.8, 4.0)" xml:space="preserve">w</text><text fill="#000" font-family="HelveticaNeue" font-size="112" transform="matrix(1.00, 0.00, -0.00, -1.00, 0.0, 244.0) matrix(1.00, 0.00, -0.00, -1.00, 274.7, 4.0)" xml:space="preserve">o</text><text fill="#000" font-family="HelveticaNeue" font-size="112" transform="matrix(1.00, 0.00, -0.00, -1.00, 0.0, 244.0) matrix(1.00, 0.00, -0.00, -1.00, 339.0, 4.0)" xml:space="preserve">r</text><text fill="#000" font-family="HelveticaNeue" font-size="112" transform="matrix(1.00, 0.00, -0.00, -1.00, 0.0, 244.0) matrix(1.00, 0.00, -0.00, -1.00, 376.3, 4.0)" xml:space="preserve">l</text><text fill="#000" font-family="HelveticaNeue" font-size="112" transform="matrix(1.00, 0.00, -0.00, -1.00, 0.0, 244.0) matrix(1.00, 0.00, -0.00, -1.00, 401.2, 4.0)" xml:space="preserve">d</text></g></svg>