<svg xmlns="http://www.w3.org/2000/svg" xmlns:xlink="http://www.w3.org/1999/xlink" stroke-miterlimit="4" clip-rule="evenodd" viewBox="0 0 1920 1080"><desc>SVG generated by Keynote</desc><g transform="matrix(1.00, 0.00, -0.00, -1.00, 0.0, 1080.0)"><path fill="#FEFFFE" d="M 0.0 1080.0 L 1920.0 1080.0 L 1920.0 0.0 L 0.0 0.0 Z M 0.0 1080.0"/><text fill="#000" font-family="HelveticaNeue-Light" font-size="100" transform="matrix(1.00, 0.00, -0.00, -1.00, 258.0, 563.0)" xml:space="preserve">“</text><text fill="#000" font-family="HelveticaNeue-Light" font-size="100" transform="matrix(1.00, 0.00, -0.00, -1.00, 295.0, 563.0)" xml:space="preserve">r</text><text fill="#000" font-family="HelveticaNeue-Light" font-size="100" transform="matrix(1.00, 0.00, -0.00, -1.00, 324.7, 563.0)" xml:space="preserve">e</text><text fill="#000" font-family="HelveticaNeue-Light" font-size="100" transform="matrix(1.00, 0.00, -0.00, -1.00, 376.6, 563.0)" xml:space="preserve">a</text><text fill="#000" font-family="HelveticaNeue-Light" font-size="100" transform="matrix(1.00, 0.00, -0.00, -1.00, 428.5, 563.0)" xml:space="preserve">d</text><text fill="#000" font-family="HelveticaNeue-Light" font-size="100" transform="matrix(1.00, 0.00, -0.00, -1.00, 43.0, 442.0)" xml:space="preserve">t</text><text fill="#000" font-family="HelveticaNeue-Light" font-size="100" transform="matrix(1.00, 0.00, -0.00, -1.00, 72.6, 442.0)" xml:space="preserve">h</text><text fill="#000" font-family="HelveticaNeue-Light" font-size="100" transform="matrix(1.00, 0.00, -0.00, -1.00, 126.3, 442.0)" xml:space="preserve">e</text><text fill="#000" font-family="HelveticaNeue-Light" font-size="100" transform="matrix(1.00, 0.00, -0.00, -1.00, 206.0, 442.0)" xml:space="preserve">c</text><text fill="#000" font-family="HelveticaNeue-Light" font-size="100" transform="matrix(1.00, 0.00, -0.00, -1.00, 257.9, 442.0)" xml:space="preserve">o</text><text fill="#000" font-family="HelveticaNeue-Light" font-size="100" transform="matrix(1.00, 0.00, -0.00, -1.00, 313.5, 442.0)" xml:space="preserve">m</text><text fill="#000" font-family="HelveticaNeue-Light" font-size="100" transform="matrix(1.00, 0.00, -0.00, -1.00, 396.8, 442.0)" xml:space="preserve">m</text><text fill="#000" font-family="HelveticaNeue-Light" font-size="100" transform="matrix(1.00, 0.00, -0.00, -1.00, 480.1, 442.0)" xml:space="preserve">e</text><text fill="#000" font-family="HelveticaNeue-Light" font-size="100" transform="matrix(1.00, 0.00, -0.00, -1.00, 532.0, 442.0)" xml:space="preserve">n</text><text fill="#000" font-family="HelveticaNeue-Light" font-size="100" transform="matrix(1.00, 0.00, -0.00, -1.00, 585.7, 442.0)" xml:space="preserve">t</text><text fill="#000" font-family="HelveticaNeue-Light" font-size="100" transform="matrix(1.00, 0.00, -0.00, -1.00, 615.3, 442.0)" xml:space="preserve">s</text><text fill="#000" font-family="HelveticaNeue-Light" font-size="100" transform="matrix(1.00, 0.00, -0.00, -1.00, 663.4, 442.0)" xml:space="preserve">”</text><image width="584" height="540" transform="matrix(2.00, 0.00, -0.00, -2.00, 725.0, 1080.0)" xlink:href="A8C302AFB07409714D6F6821C681A155.png"/></g></svg>